<svg xmlns="http://www.w3.org/2000/svg" xmlns:xlink="http://www.w3.org/1999/xlink" version="1.1" enable-background="new 0 0 98 98" xml:space="preserve" width="98" height="122.5"><rect id="backgroundrect" width="100%" height="100%" x="0" y="0" fill="none" stroke="none"/><g class="currentLayer" style=""><title>Layer 1</title><g id="svg_1" class=""><path d="M20.60548335633204,40.83448083355026 l0.2983129729270939,0.34776966381073027 c1.0143864389896393,1.1954363745212555 2.871284209251404,1.2037374092102051 3.897466855430603,-0.004281586313247683 c0.3170121458053591,-0.3695271126270296 0.9211527125358584,-0.37328442306518567 1.2483882379055025,0.0038446897506713893 c1.0229496116161347,1.207407340335846 2.8867503475666045,1.1816304431438447 3.897903751993179,0.004281586313247683 c0.08746669182777408,-0.03468958706855779 0.665830361366272,-0.6716847753047948 1.2394755480289459,-0.011970965814590468 c1.017968990802765,1.1988441677093506 2.86490551943779,1.2058345127105714 3.899651338243485,0.0008737931251525891 l0.3627115262508393,-0.4257120105743408 l13.53575454311371,16.34071785416603 l-3.0303145580291746,4.367392798137665 c-2.42259143948555,-2.183172123193741 -10.256408944416046,-8.256209101629258 -20.111746844387056,-5.791850350761414 l0.42413918294906633,1.6955081800460814 c10.680460748052598,-2.670049652528763 19.1087197160244,5.9506185616016385 19.192691235351564,6.038085253429412 l0.7398406390666967,0.7705107777595519 l4.198488587045669,-6.051017391681671 c1.5245942447662353,4.710706117010116 3.100654904603958,9.965785350990297 -1.7055568009853364,12.900157423877717 c-7.638000465583801,4.663346529626846 -12.096966783237457,10.309710325050354 -12.895264182376861,16.32857212972641 c-0.6958888448715213,5.25044813041687 1.4165060351848604,10.51068274383545 6.277854086971282,15.635654181480406 l1.2680485832214359,-1.2032131333351135 c-4.480723766469956,-4.722677082824707 -6.436534918498993,-9.501189546346664 -5.813170903015137,-14.202546076917649 c0.9173080227851871,-6.920791068458557 7.071869899797439,-12.013344781160354 12.073112230920792,-15.066989615631105 c6.092697323751449,-3.7195625751495363 3.9316321666240697,-10.385642947626113 2.3538239205360423,-15.252583275413514 c-0.10476779570579532,-0.3229539390563965 -0.20411807403564453,-0.6350728433609012 -0.3037304903030396,-0.9480655407905576 l0.7549572601318363,-1.0880471994400025 c3.1945876655578616,2.507349372625351 7.885109161376953,6.9566165865898135 8.450977589225769,11.815954914188385 c0.2773419379234316,2.3832707488536835 -0.4812852533340457,4.66972521944046 -2.2544736422061917,6.796188168811798 c-4.558403975296021,5.471867308330536 -6.082823461437226,11.160085794448852 -4.29303300318718,16.017152259922028 c1.6831876969814301,4.567404044485092 7.103850728178023,10.5985863322258 23.370121408081054,13.391491298151015 l0.29612849011421233,-1.7219841117382049 c-2.4437372331142426,-0.4195954586982727 -4.694453564882279,-0.9288420920372009 -6.76333354730606,-1.5162058307647706 v-6.892567550516128 l3.4661625688552857,3.4600460169792173 l1.2347570651531221,-1.2364172720909121 l-4.700919634008407,-4.692968116569519 V88.66006209046441 l2.4703005441188814,2.4661937164306638 l1.2347570651531221,-1.2364172720909121 l-3.705057609272003,-3.699203195333481 v-1.3230975501060487 l1.675061420917511,1.6722652829170228 l1.2347570651531221,-1.2364172720909121 l-3.7836116112232205,-3.777582438659668 l-3.7840485077857977,3.777582438659668 l1.2347570651531221,1.2364172720909121 l1.675498317480088,-1.6723526622295384 v1.3231849294185638 l-3.7054945058345803,3.699290574645996 l1.2347570651531221,1.2364172720909121 l2.4707374406814577,-2.4663684750556945 v1.9822870837211606 l-4.700919634008407,4.692968116569519 l1.2347570651531221,1.2364172720909121 l3.4661625688552857,-3.4600460169792173 v6.364446985673904 c-7.271793766832352,-2.3562705412864684 -11.893285605764389,-5.826976834392548 -13.5156573012352,-10.2292339782238 c-1.5645265905857086,-4.246547208929061 -0.14548655533790594,-9.32284836950302 3.996030719947815,-14.293857458496094 c1.9716268075942995,-2.3650084725379945 2.8621093814373015,-4.929329156923294 2.6787002044677743,-7.6262042583942415 c4.409247488832474,-3.38830760140419 10.561537503719329,-2.9073718653202056 15.006260993433,-1.8724512878894806 l0.3959156650066378,-1.7023237664222717 c-4.574044872236252,-1.06358099193573 -10.851898959207535,-1.564963487148285 -15.710713010931016,1.6450029374122621 c-1.1856498915195466,-4.69331763381958 -5.2842639243602765,-8.788086976909637 -8.911204428243638,-11.613671805715562 l4.9004939837932575,-7.062695071983338 l0.5577421517848972,0.6503642230510714 c0.48853773627281205,0.562722772598267 1.1971839607715609,0.8857640909671787 1.9442770827770233,0.8857640909671787 s1.4557393465042117,-0.3229539390563965 1.9592189452171325,-0.9014923672199248 c0.30381786961555507,-0.3579930433750153 0.9322498852252962,-0.35842993993759176 1.236067754840851,-0.0004368965625762943 c0.4842561499595644,0.5712859452247621 1.1950868572711946,0.8989583671569826 1.9502188760280612,0.899395263719559 h0.0004368965625762943 c0.7547825015068056,0 1.4659627260684969,-0.32767242193222074 1.9506557725906377,-0.8989583671569826 c0.15186524515151983,-0.17921496996879582 0.3771291128158572,-0.28162352423667925 0.6182086360454564,-0.28162352423667925 c0.24064262666702274,0 0.4654695977687837,0.10240855426788335 0.620742636108399,0.2854682139873507 c0.4889746328353884,0.5691888417243959 1.1993684435844423,0.8955505739688877 1.9502188760280612,0.8955505739688877 c0.002970896625518802,0 0.005504896688461308,-0.0004368965625762943 0.008126276063919073,-0.0004368965625762943 c0.7500640186309818,-0.0020971035003662136 1.4570500361919403,-0.3297695254325868 1.9365877032756804,-0.8955505739688877 l0.5028679435253144,-0.5867520835399629 L88.09796337761804,64.34676838309363 l1.3456414127349854,-1.1144357518196106 L65.11012646179125,33.850165004893114 L50.01945705246851,55.59957492444115 l-14.303119665622711,-17.267462842702866 l6.024628839302063,-8.699921250581742 c0.713015190124512,-0.026912828254699726 1.3926514828681946,-0.33929387049674997 1.8660725980758668,-0.8992205050945283 c0.20735110859870914,-0.24405041985511788 0.47228518414497384,-0.28118662767410296 0.6118299462318425,-0.28162352423667925 c0.186030556344986,0.027349724817276024 0.40919732050895685,0.07724331226348882 0.5610625656604765,0.21713759160041818 c0.08737931251525882,0.0377478630065918 2.1099482593059538,2.2334152278900152 3.960642098379136,0.07724331226348882 c0.08746669182777408,-0.032330345630645796 0.6903839481830597,-0.6590147749900821 1.2411357549667361,-0.010223379564285281 c0.46590649433136,0.545246910095215 1.140911683511734,0.8729193320274355 1.8525288046360018,0.8985214705944066 c0.388226285505295,0.015029241752624522 0.765617536258698,-0.06640827751159671 1.1124260276317595,-0.21879779853820813 l5.333545856618882,6.436884435749054 l1.3456414127349854,-1.1153095449447632 L46.79970414490626,19.257645056219864 L34.55847411670611,36.93413046080666 l-7.288133698272705,-8.798572494411468 L7.57250937743113,56.592291293927005 l1.4369527943134308,0.9949882316112516 L20.60548335633204,40.83448083355026 zM65.23298177518771,36.73866293871002 l7.178297902441025,8.667416146326065 l-0.7016558794975286,0.8189189168930057 c-0.20735110859870914,0.24405041985511788 -0.47228518414497384,0.28118662767410296 -0.6118299462318425,0.28162352423667925 c-0.0008737931251525891,0 -0.001747586250305178,0.0004368965625762943 -0.002970896625518802,0.0004368965625762943 c-0.24064262666702274,0 -0.4680035978317261,-0.10450565776824962 -0.620742636108399,-0.2820604207992557 c-0.4842561499595644,-0.5712859452247621 -1.1950868572711946,-0.8989583671569826 -1.9502188760280612,-0.8989583671569826 c-0.7555689153194428,0 -1.4663996226310732,0.32767242193222074 -1.9510926691532133,0.8985214705944066 c-0.15186524515151983,0.17921496996879582 -0.3771291128158572,0.2820604207992557 -0.6177717394828801,0.2820604207992557 h-0.0004368965625762943 c-0.24064262666702274,0 -0.4654695977687837,-0.10284545083045962 -0.6173348429203036,-0.2820604207992557 c-0.48469304652214046,-0.5712859452247621 -1.1959606503963471,-0.8989583671569826 -1.9510926691532133,-0.8985214705944066 c-0.755219398069382,0 -1.4663996226310732,0.32767242193222074 -1.9528402554035194,0.8998321602821351 c-0.31657524924278285,0.36524552631378177 -0.9347838852882385,0.3614008365631104 -1.2454173412799836,0.0038446897506713893 l-0.8514240211486818,-0.9925416108608246 L65.23298177518771,36.73866293871002 zM46.92430704455302,22.146929403849413 l4.700395358133316,5.672752347803115 c-0.11769993395805366,-0.048408139133453404 -0.22639979872703564,-0.1163018649578095 -0.31220628361701985,-0.2166133157253267 c-1.805431355190277,-2.1315309494972228 -3.8651365097999575,0.024815724754333513 -3.952515822315216,0.06230144982337956 c-0.334488008308411,0.32312869768142727 -0.46118801145553595,0.22648717803955076 -1.187834374332428,-0.06658303613662722 c-0.5642082209110262,-0.6568302921772008 -1.4601083121299745,-1.0323865773677825 -2.440504198551178,-0.841462779521942 L46.92430704455302,22.146929403849413 zM27.394943318080166,31.02571610714989 l6.922713413333893,8.357219586896896 l-0.5591402207851411,0.656306016302109 c-0.3205073183059694,0.3735465610027315 -0.9026282982826235,0.399672975444794 -1.2458542378425599,-0.0038446897506713893 c-1.8593443910121916,-2.1397446048736577 -3.8630394062995923,0.037310966444015534 -3.95041871881485,0.07462193288803108 c-0.3274976633071902,0.30906062836647047 -0.8678513319015505,0.3086237318038943 -1.1921159606456757,-0.07121413969993591 c-1.0193670598030091,-1.186785822582245 -2.8592258641242982,-1.2034752712726593 -3.9064669246196746,0.013194276189804087 c-0.3147402836799624,0.3708378023147585 -0.9021040224075317,0.38298352675437947 -1.2304754788398742,-0.004281586313247683 l-0.5995968424797061,-0.6987723621845251 L27.394943318080166,31.02571610714989 z" id="svg_2"/><path d="M16.239576006507136,60.84897450310783 l1.134882510948181,1.3286024467945101 c1.7539649401187898,-1.4975940371990206 3.5728527094364164,-2.696001308345795 5.406158065319062,-3.5617555367469786 l-0.7462193288803102,-1.5803422461509706 C20.061110239361977,57.967379534979635 18.111328259896496,59.250369980641175 16.239576006507136,60.84897450310783 z" id="svg_3"/><path d="M39.856718731068824,40.447565237732704 l0.8618221593379974,1.5197883825778962 c9.25635271267891,-5.249137440729141 14.34296463212967,0.11263193383216859 14.554946844291687,0.34348807749748267 l0.6459952574253088,-0.5883249111652376 l0.6480923609256746,-0.5857909111022952 C56.507021489476415,41.06874477040367 50.37124616465494,34.4828786068161 39.856718731068824,40.447565237732704 z" id="svg_4"/><path d="M83.81821202993319,65.62547724244195 c-0.06955393276214604,-0.031107035255432153 -1.7339550775527959,-0.7777632606983186 -4.252925898742676,-1.4804676919460298 l-0.4693142875194553,1.683624593544007 c2.3811736453533174,0.6643449130535131 3.9875549266338353,1.3827776205539704 4.003283202886582,1.390030103492737 L83.81821202993319,65.62547724244195 z" id="svg_5"/><polygon points="24.29953098297119,73.8586196899414 25.534289360046387,75.09503936767578 29.000012397766113,71.63516998291016 29.000012397766113,78.59326171875 30.74760150909424,78.59326171875 30.74760150909424,71.63507843017578 34.21376132965088,75.09503936767578 35.44851779937744,73.8586196899414 30.74760150909424,69.1656494140625 30.74760150909424,67.18327331542969 33.21842288970947,69.64964294433594 34.4531831741333,68.41322326660156 30.74760150909424,64.71393585205078 30.74760150909424,63.39075469970703 32.423096656799316,65.06310272216797 33.657856941223145,63.82581329345703 29.873806953430176,60.04901885986328 26.090283393859863,63.82625198364258 27.324952125549316,65.06266784667969 29.000012397766113,63.39075469970703 29.000012397766113,64.71401977539062 25.294955253601074,68.41322326660156 26.52971363067627,69.64964294433594 29.000012397766113,67.1834487915039 29.000012397766113,69.16573333740234 " id="svg_6"/><polygon points="7.868987083435059,83.20628356933594 9.103744506835938,84.44270324707031 12.569907188415527,80.98265838623047 12.569907188415527,87.94084167480469 14.317492485046387,87.94084167480469 14.317492485046387,80.98265838623047 17.783656120300293,84.44270324707031 19.018412590026855,83.20628356933594 14.317492485046387,78.51322937011719 14.317492485046387,76.53093719482422 16.788229942321777,78.99730682373047 18.022988319396973,77.76080322265625 14.317492485046387,74.06159973144531 14.317492485046387,72.73832702636719 15.992554664611816,74.41033172607422 17.22731113433838,73.173828125 13.443699836730957,69.39668273925781 9.660088539123535,73.173828125 10.894845008850098,74.41033172607422 12.569907188415527,72.73832702636719 12.569907188415527,74.06159973144531 8.864412307739258,77.76080322265625 10.099169731140137,78.99730682373047 12.569907188415527,76.53093719482422 12.569907188415527,78.51322937011719 " id="svg_7"/><polygon points="21.90769672393799,97.30213928222656 23.14245319366455,98.53855895996094 26.608616828918457,95.07859802246094 26.608616828918457,102.03678894042969 28.356202125549316,102.03678894042969 28.356202125549316,95.07859802246094 31.822365760803223,98.53855895996094 33.057122230529785,97.30213928222656 28.356202125549316,92.60916900634766 28.356202125549316,90.62679290771484 30.826939582824707,93.0931625366211 32.06169605255127,91.85674285888672 28.356202125549316,88.15745544433594 28.356202125549316,86.83435821533203 30.03126621246338,88.50662231445312 31.26602268218994,87.2701187133789 27.48241138458252,83.49253845214844 23.69836139678955,87.2701187133789 24.933119773864746,88.50662231445312 26.608616828918457,86.83419036865234 26.608616828918457,88.15745544433594 22.903122901916504,91.85674285888672 24.137879371643066,93.0931625366211 26.608616828918457,90.62679290771484 26.608616828918457,92.60916900634766 " id="svg_8"/><polygon points="78.7136926651001,83.31847381591797 79.94844913482666,84.55489349365234 83.41460514068604,81.0948486328125 83.41460514068604,88.05303955078125 85.16219425201416,88.05303955078125 85.16219425201416,81.0948486328125 88.62835025787354,84.55489349365234 89.86302280426025,83.31847381591797 85.16219425201416,78.62542724609375 85.16219425201416,76.64313507080078 87.632493019104,79.10906982421875 88.8672571182251,77.87265014648438 85.16219425201416,74.17379760742188 85.16219425201416,72.85052490234375 86.83716678619385,74.52252960205078 88.07192325592041,73.28601837158203 84.2883996963501,69.50887298583984 80.50435733795166,73.28567504882812 81.73910617828369,74.52296447753906 83.41460514068604,72.85052490234375 83.41460514068604,74.17362213134766 79.70902347564697,77.87265014648438 80.94378757476807,79.10906982421875 83.41460514068604,76.64305114746094 83.41460514068604,78.62542724609375 " id="svg_9"/><path d="M84.93771578187868,30.49453726636963 c0,-2.5497283391952514 -2.0739479825496674,-4.623676321744919 -4.6232394251823425,-4.623676321744919 c-2.5497283391952514,0 -4.623676321744919,2.0739479825496674 -4.623676321744919,4.623676321744919 s2.0739479825496674,4.623676321744919 4.623676321744919,4.623676321744919 C82.86376779932903,35.11821358811455 84.93771578187868,33.04417822625236 84.93771578187868,30.49453726636963 zM80.31447635669635,33.370627337809374 c-1.5858471428394318,0 -2.876090071439743,-1.2902429286003112 -2.876090071439743,-2.876090071439743 s1.2902429286003112,-2.876090071439743 2.876090071439743,-2.876090071439743 c1.5854976255893707,0 2.8756531748771668,1.2902429286003112 2.8756531748771668,2.876090071439743 S81.89997398228572,33.370627337809374 80.31447635669635,33.370627337809374 z" id="svg_10"/><rect x="79.44068527949639" y="20.381430297814177" width="1.7475862503051758" height="3.3014526057630746" id="svg_11"/><rect x="91.0717717157795" y="-6.027566634598301" transform="matrix(-0.7567922256946563,-0.4368091832637787,0.4368091832637787,-0.7567922256946563,156.03009163522646,60.253245573015974) " width="2.0002999305725098" height="3.778599977493286" id="svg_12"/><rect x="89.5171102588094" y="-2.398324157972013" transform="matrix(-0.4368091832637787,-0.7567922256946563,0.7567922256946563,-0.4368091832637787,127.56898934206889,94.5413247005661) " width="2.0002999305725098" height="3.7781999111175537" id="svg_13"/><rect x="87.12604087389991" y="29.620744537207884" width="3.3014526057630746" height="1.7475862503051758" id="svg_14"/><rect x="88.94404079488538" y="27.198643033688434" transform="matrix(0.7567048463821411,0.43689656257629395,-0.43689656257629395,0.7567048463821411,31.22805453524515,-26.298672232035827) " width="3.7781999111175537" height="2.0002999305725098" id="svg_15"/><rect x="90.4959927846526" y="30.6590412496042" transform="matrix(0.43689656257629395,0.7567048463821411,-0.7567048463821411,0.43689656257629395,68.14328007287905,-45.92004637458726) " width="3.778599977493286" height="2.0002999305725098" id="svg_16"/><rect x="79.44068527949639" y="37.30610429818171" width="1.7475862503051758" height="3.3014526057630746" id="svg_17"/><rect x="76.60222425590018" y="29.853566132965597" transform="matrix(0.7567922256946563,0.4368091832637787,-0.4368091832637787,0.7567922256946563,31.222112741994124,-20.097799319390504) " width="2.0002999305725098" height="3.778599977493286" id="svg_18"/><rect x="78.15688571287025" y="26.22472348429646" transform="matrix(0.4368091832637787,0.7567922256946563,-0.7567922256946563,0.4368091832637787,59.68365193171427,-37.4583211299221) " width="2.0002999305725098" height="3.7781999111175537" id="svg_19"/><rect x="70.20101896491178" y="29.620744537207884" width="3.3014526057630746" height="1.7475862503051758" id="svg_20"/><rect x="76.9521536631224" y="-1.5944431473664054" transform="matrix(-0.7567048463821411,-0.43689656257629395,0.43689656257629395,-0.7567048463821411,132.9056808539383,60.260148538704684) " width="3.7781999111175537" height="2.0002999305725098" id="svg_21"/><rect x="80.81149113670337" y="13.884640538544602" transform="matrix(0.43689656257629395,0.7567048463821411,-0.7567048463821411,0.43689656257629395,51.21781985936091,-45.920483271149806) " width="3.778599977493286" height="2.0002999305725098" id="svg_22"/><path d="M47.82544989452288,79.6419927630146 l1.3695833443641663,1.0854258200645446 c0.6480923609256746,-0.8178703651428223 1.4331081045627594,-1.6000025914669038 2.3329402648448947,-2.323590678405762 l-1.09564919962883,-1.361893964862824 C49.43139427924082,77.84748382188873 48.554105981587625,78.72206336085395 47.82544989452288,79.6419927630146 z" id="svg_23"/><path d="M45.10253575792239,86.52564762365418 l1.744178457117081,0.10747655439376833 c0.06570924301147468,-1.0675130609989167 0.304167386865616,-2.1171133629322054 0.708646224498749,-3.1197035947322846 l-1.6204493505954747,-0.6535972576141362 C45.46000452542231,84.0365605273445 45.179691690873355,85.27000690280991 45.10253575792239,86.52564762365418 z" id="svg_24"/><path d="M55.28126449351237,99.98625595800476 l-0.9420363682270049,1.4719918986320497 c0.41601290688514736,0.26624476523399365 0.8439094002723696,0.5248001509666445 1.285087549161911,0.7743554675102234 l0.8610357455253601,-1.5205747963905336 C56.07230940971301,100.47776459090309 55.67080146870539,100.23537437798576 55.28126449351237,99.98625595800476 z" id="svg_25"/><path d="M52.571107736539105,97.98133763234216 c-0.8733562285900116,-0.7479669151306153 -1.6673720414161681,-1.5461769349575043 -2.3598530930995945,-2.372610472726822 l-1.3396996194839477,1.1221251313209535 c0.7539087083816529,0.9002690568447115 1.6161677642822263,1.7675961128711704 2.5629226153850557,2.5783013743877414 L52.571107736539105,97.98133763234216 z" id="svg_26"/><path d="M45.45275204248354,90.25421026799278 c0.28712842092514057,1.1626691323280334 0.7415008460044866,2.323590678405762 1.349922999048233,3.4507838098526005 l1.5377011416435247,-0.8302782275199893 c-0.5384313237190245,-0.9975222316741945 -0.9390654716014865,-2.0202097053527837 -1.1912421675205231,-3.039489385843277 L45.45275204248354,90.25421026799278 z" id="svg_27"/><path d="M53.9637592194073,76.16980102159577 c3.1256453879833224,-3.3261809102058413 3.5817653993129728,-6.199300085020066 3.413647602033615,-8.024566544151307 l-1.7398968708038336,0.16042841777801523 c0.19328303928375248,2.104268603992462 -0.8255597446441651,4.4099465233325965 -2.946954693889618,6.66695416560173 L53.9637592194073,76.16980102159577 z" id="svg_28"/></g></g></svg>