<svg xmlns="http://www.w3.org/2000/svg" xmlns:xlink="http://www.w3.org/1999/xlink" xmlns:serif="http://www.serif.com/" version="1.1" xml:space="preserve" style="" fill-rule="evenodd" clip-rule="evenodd" stroke-linejoin="round" stroke-miterlimit="2" width="64" height="80"><rect id="backgroundrect" width="100%" height="100%" x="0" y="0" fill="none" stroke="none"/><g class="currentLayer" style=""><title>Layer 1</title><g id="svg_1" class=""><path d="M32.028,11 L32.056,11.001999999999999 L32.084,11.004 L32.112,11.006 L32.14,11.01 L32.168,11.014 L32.195,11.019 L32.223,11.025 L32.25,11.032 L32.277,11.039 L32.304,11.047 L32.33,11.056000000000001 L32.357,11.065999999999999 L32.383,11.076 L32.408,11.087 L32.434,11.099 L32.459,11.112 L32.484,11.125 L32.508,11.139 L32.532,11.153 L32.556,11.169 L32.579,11.184000000000001 L32.601,11.201 L32.623,11.218 L32.645,11.236 L32.666,11.254 L32.687,11.273 L32.707,11.293 L32.727,11.313 L32.746,11.334 L32.764,11.355 L32.782,11.377 L32.799,11.399000000000001 L32.816,11.421 L32.831,11.443999999999999 L32.847,11.468 L32.861,11.492 L32.875,11.516 L32.888,11.541 L32.901,11.565999999999999 L32.913,11.592 L32.924,11.617 L32.934,11.643 L32.944,11.67 L32.953,11.696 L32.961,11.722999999999999 L32.968,11.75 L32.975,11.777000000000001 L32.981,11.805 L32.986,11.832 L32.99,11.86 L32.994,11.888 L32.996,11.916 L32.998,11.943999999999999 L33,11.972 L33,12 L33,14 L33,14.027999999999999 L32.998,14.056000000000001 L32.996,14.084 L32.994,14.112 L32.99,14.14 L32.986,14.168 L32.981,14.195 L32.975,14.222999999999999 L32.968,14.25 L32.961,14.277000000000001 L32.953,14.304 L32.944,14.33 L32.934,14.357 L32.924,14.383 L32.913,14.408000000000001 L32.901,14.434000000000001 L32.888,14.459 L32.875,14.484 L32.861,14.508 L32.847,14.532 L32.831,14.556000000000001 L32.816,14.579 L32.799,14.600999999999999 L32.782,14.623000000000001 L32.764,14.645 L32.746,14.666 L32.727,14.687000000000001 L32.707,14.707 L32.687,14.727 L32.666,14.746 L32.645,14.764 L32.623,14.782 L32.601,14.799 L32.579,14.815999999999999 L32.556,14.831 L32.532,14.847000000000001 L32.508,14.861 L32.484,14.875 L32.459,14.888 L32.434,14.901 L32.408,14.913 L32.383,14.924 L32.357,14.934000000000001 L32.33,14.943999999999999 L32.304,14.953 L32.277,14.961 L32.25,14.968 L32.223,14.975 L32.195,14.981 L32.168,14.986 L32.14,14.99 L32.112,14.994 L32.084,14.996 L32.056,14.998000000000001 L32.028,15 L32,15 L31.972,15 L31.944,14.998000000000001 L31.916,14.996 L31.888,14.994 L31.86,14.99 L31.832,14.986 L31.805,14.981 L31.777,14.975 L31.75,14.968 L31.723,14.961 L31.696,14.953 L31.67,14.943999999999999 L31.643,14.934000000000001 L31.617,14.924 L31.592,14.913 L31.566,14.901 L31.541,14.888 L31.516,14.875 L31.492,14.861 L31.468,14.847000000000001 L31.444,14.831 L31.421,14.815999999999999 L31.399,14.799 L31.377,14.782 L31.355,14.764 L31.334,14.746 L31.313,14.727 L31.293,14.707 L31.273,14.687000000000001 L31.254,14.666 L31.236,14.645 L31.218,14.623000000000001 L31.201,14.600999999999999 L31.184,14.579 L31.169,14.556000000000001 L31.153,14.532 L31.139,14.508 L31.125,14.484 L31.112,14.459 L31.099,14.434000000000001 L31.087,14.408000000000001 L31.076,14.383 L31.066,14.357 L31.056,14.33 L31.047,14.304 L31.039,14.277000000000001 L31.032,14.25 L31.025,14.222999999999999 L31.019,14.195 L31.014,14.168 L31.01,14.14 L31.006,14.112 L31.004,14.084 L31.002,14.056000000000001 L31,14.027999999999999 L31,14 L31,12 L31,11.972 L31.002,11.943999999999999 L31.004,11.916 L31.006,11.888 L31.01,11.86 L31.014,11.832 L31.019,11.805 L31.025,11.777000000000001 L31.032,11.75 L31.039,11.722999999999999 L31.047,11.696 L31.056,11.67 L31.066,11.643 L31.076,11.617 L31.087,11.592 L31.099,11.565999999999999 L31.112,11.541 L31.125,11.516 L31.139,11.492 L31.153,11.468 L31.169,11.443999999999999 L31.184,11.421 L31.201,11.399000000000001 L31.218,11.377 L31.236,11.355 L31.254,11.334 L31.273,11.313 L31.293,11.293 L31.313,11.273 L31.334,11.254 L31.355,11.236 L31.377,11.218 L31.399,11.201 L31.421,11.184000000000001 L31.444,11.169 L31.468,11.153 L31.492,11.139 L31.516,11.125 L31.541,11.112 L31.566,11.099 L31.592,11.087 L31.617,11.076 L31.643,11.065999999999999 L31.67,11.056000000000001 L31.696,11.047 L31.723,11.039 L31.75,11.032 L31.777,11.025 L31.805,11.019 L31.832,11.014 L31.86,11.01 L31.888,11.006 L31.916,11.004 L31.944,11.001999999999999 L31.972,11 L32,11 L32.028,11 z" id="svg_2"/><path d="M20.526,14.082 L20.552,14.083 L20.578,14.084 L20.605,14.087 L20.631,14.09 L20.656,14.094000000000001 L20.682,14.097999999999999 L20.708,14.103 L20.733,14.109 L20.759,14.115 L20.784,14.123000000000001 L20.809,14.129999999999999 L20.834,14.139 L20.858,14.148 L20.883,14.158000000000001 L20.907,14.168 L20.931,14.179 L20.954,14.190000000000001 L20.977,14.203 L21,14.215 L21.023,14.229 L21.045,14.243 L21.066,14.257 L21.088,14.272 L21.109,14.288 L21.129,14.304 L21.149,14.321 L21.169,14.338000000000001 L21.188,14.356 L21.207,14.373999999999999 L21.225,14.393 L21.243,14.411999999999999 L21.26,14.432 L21.277,14.452 L21.293,14.472999999999999 L21.309,14.494 L21.324,14.515 L21.339,14.536999999999999 L21.353,14.559000000000001 L21.366,14.581 L22.366,16.314 L22.379,16.336 L22.391000000000002,16.36 L22.403,16.383000000000003 L22.414,16.407 L22.424,16.431 L22.434,16.455 L22.443,16.48 L22.451,16.503999999999998 L22.459,16.529 L22.466,16.555 L22.472,16.58 L22.478,16.606 L22.483,16.631 L22.488,16.657 L22.491,16.683 L22.495,16.709 L22.497,16.735 L22.499,16.761 L22.5,16.787 L22.5,16.814 L22.5,16.84 L22.499,16.866 L22.497,16.892 L22.495,16.918 L22.491,16.944000000000003 L22.488,16.97 L22.483,16.996000000000002 L22.478,17.021 L22.472,17.047 L22.466,17.072 L22.459,17.098 L22.451,17.122999999999998 L22.443,17.147 L22.434,17.172 L22.424,17.195999999999998 L22.414,17.22 L22.403,17.244 L22.391000000000002,17.268 L22.379,17.291 L22.366,17.314 L22.353,17.336 L22.339,17.358 L22.324,17.380000000000003 L22.309,17.401 L22.293,17.422 L22.277,17.442999999999998 L22.26,17.463 L22.243,17.483 L22.225,17.502000000000002 L22.207,17.521 L22.188,17.539 L22.169,17.557000000000002 L22.149,17.573999999999998 L22.129,17.591 L22.109,17.607 L22.088,17.622999999999998 L22.066,17.637999999999998 L22.045,17.652 L22.022,17.666 L22,17.68 L21.977,17.692 L21.954,17.705 L21.93,17.716 L21.907,17.727 L21.883,17.737000000000002 L21.858,17.747 L21.834,17.756 L21.809,17.765 L21.784,17.772 L21.759,17.779 L21.733,17.786 L21.708,17.792 L21.682,17.797 L21.656,17.801000000000002 L21.631,17.805 L21.605,17.808 L21.578,17.810000000000002 L21.552,17.811999999999998 L21.526,17.813000000000002 L21.5,17.813000000000002 L21.474,17.813000000000002 L21.448,17.811999999999998 L21.422,17.810000000000002 L21.395,17.808 L21.369,17.805 L21.344,17.801000000000002 L21.318,17.797 L21.292,17.792 L21.267,17.786 L21.241,17.779 L21.216,17.772 L21.191,17.765 L21.166,17.756 L21.142,17.747 L21.117,17.737000000000002 L21.093,17.727 L21.069,17.716 L21.046,17.705 L21.023,17.692 L21,17.68 L20.977,17.666 L20.955,17.652 L20.934,17.637999999999998 L20.912,17.622999999999998 L20.891000000000002,17.607 L20.871,17.591 L20.851,17.573999999999998 L20.831,17.557000000000002 L20.812,17.539 L20.793,17.521 L20.775,17.502000000000002 L20.757,17.483 L20.74,17.463 L20.723,17.442999999999998 L20.707,17.422 L20.691,17.401 L20.676000000000002,17.380000000000003 L20.661,17.358 L20.647,17.336 L20.634,17.313000000000002 L19.634,15.581 L19.621,15.559000000000001 L19.609,15.535 L19.597,15.512 L19.586,15.488 L19.576,15.464 L19.566,15.440000000000001 L19.557,15.415 L19.549,15.39 L19.541,15.365 L19.534,15.34 L19.528,15.315000000000001 L19.522,15.289 L19.517,15.264 L19.512,15.238 L19.509,15.212 L19.505,15.186 L19.503,15.16 L19.501,15.134 L19.5,15.108 L19.5,15.081 L19.5,15.055 L19.501,15.029 L19.503,15.003 L19.505,14.977 L19.509,14.951 L19.512,14.925 L19.517,14.899000000000001 L19.522,14.873000000000001 L19.528,14.847999999999999 L19.534,14.823 L19.541,14.797 L19.549,14.772 L19.557,14.748000000000001 L19.566,14.722999999999999 L19.576,14.699 L19.586,14.675 L19.597,14.651 L19.609,14.626999999999999 L19.621,14.604 L19.634,14.581 L19.647,14.559000000000001 L19.661,14.536999999999999 L19.676000000000002,14.515 L19.691,14.494 L19.707,14.472999999999999 L19.723,14.452 L19.74,14.432 L19.757,14.411999999999999 L19.775,14.393 L19.793,14.373999999999999 L19.812,14.356 L19.831,14.338000000000001 L19.851,14.321 L19.871,14.304 L19.891000000000002,14.288 L19.912,14.272 L19.934,14.257 L19.955,14.243 L19.978,14.229 L20,14.215 L20.023,14.203 L20.046,14.190000000000001 L20.07,14.179 L20.093,14.168 L20.117,14.158000000000001 L20.142,14.148 L20.166,14.139 L20.191,14.129999999999999 L20.216,14.123000000000001 L20.241,14.115 L20.267,14.109 L20.292,14.103 L20.318,14.097999999999999 L20.344,14.094000000000001 L20.369,14.09 L20.395,14.087 L20.422,14.084 L20.448,14.083 L20.474,14.082 L20.5,14.081 L20.526,14.082 z" id="svg_3"/><path d="M12.108,22.5 L12.134,22.500999999999998 L12.16,22.503 L12.186,22.505000000000003 L12.212,22.509 L12.238,22.512 L12.264,22.517 L12.289,22.522 L12.315,22.528 L12.34,22.534 L12.365,22.541 L12.39,22.549 L12.415,22.557000000000002 L12.44,22.566000000000003 L12.464,22.576 L12.488,22.586 L12.512,22.597 L12.535,22.609 L12.559,22.621000000000002 L12.581,22.634 L14.313,23.634 L14.336,23.647 L14.358,23.661 L14.38,23.676000000000002 L14.401,23.691000000000003 L14.422,23.707 L14.443,23.723 L14.463,23.740000000000002 L14.483,23.756999999999998 L14.502,23.775 L14.521,23.793 L14.539,23.811999999999998 L14.557,23.831 L14.574,23.851 L14.591,23.871000000000002 L14.607,23.891 L14.623,23.912 L14.638,23.933999999999997 L14.652000000000001,23.955 L14.666,23.977 L14.68,24 L14.692,24.023 L14.705,24.046 L14.716,24.069 L14.727,24.093 L14.737,24.117 L14.747,24.142 L14.756,24.166 L14.765,24.191 L14.772,24.216 L14.779,24.241 L14.786,24.267 L14.792,24.292 L14.797,24.318 L14.801,24.344 L14.805,24.369 L14.808,24.395 L14.81,24.422 L14.812,24.448 L14.813,24.474 L14.814,24.5 L14.813,24.526 L14.812,24.552 L14.81,24.578 L14.808,24.605 L14.805,24.631 L14.801,24.656 L14.797,24.682 L14.792,24.708 L14.786,24.733 L14.779,24.759 L14.772,24.784 L14.765,24.809 L14.756,24.834 L14.747,24.858 L14.737,24.883 L14.727,24.907 L14.716,24.93 L14.705,24.954 L14.692,24.977 L14.68,25 L14.666,25.022 L14.652000000000001,25.045 L14.638,25.066 L14.623,25.088 L14.607,25.109 L14.591,25.129 L14.574,25.149 L14.557,25.169 L14.539,25.188 L14.521,25.207 L14.502,25.225 L14.483,25.243 L14.463,25.26 L14.443,25.277 L14.422,25.293 L14.401,25.309 L14.38,25.324 L14.358,25.339 L14.336,25.353 L14.314,25.366 L14.291,25.379 L14.268,25.391000000000002 L14.244,25.403 L14.22,25.414 L14.196,25.424 L14.172,25.434 L14.147,25.443 L14.123,25.451 L14.098,25.459 L14.072,25.466 L14.047,25.472 L14.021,25.478 L13.996,25.483 L13.97,25.488 L13.944,25.491 L13.918,25.495 L13.892,25.497 L13.866,25.499 L13.84,25.5 L13.814,25.5 L13.787,25.5 L13.761,25.499 L13.735,25.497 L13.709,25.495 L13.683,25.491 L13.657,25.488 L13.631,25.483 L13.606,25.478 L13.58,25.472 L13.555,25.466 L13.529,25.459 L13.504,25.451 L13.48,25.443 L13.455,25.434 L13.431000000000001,25.424 L13.407,25.414 L13.383000000000001,25.403 L13.36,25.391000000000002 L13.336,25.379 L13.314,25.366 L11.581,24.366 L11.559,24.353 L11.537,24.339 L11.515,24.324 L11.494,24.309 L11.473,24.293 L11.452,24.277 L11.432,24.26 L11.412,24.243 L11.393,24.225 L11.374,24.207 L11.356,24.188 L11.338000000000001,24.169 L11.321,24.149 L11.304,24.129 L11.288,24.109 L11.272,24.088 L11.257,24.066 L11.243,24.045 L11.229,24.023 L11.215,24 L11.203,23.977 L11.19,23.954 L11.179,23.931 L11.168,23.907 L11.158,23.883000000000003 L11.148,23.858 L11.139,23.834 L11.13,23.808999999999997 L11.123,23.784 L11.115,23.759 L11.109,23.733 L11.103,23.708 L11.098,23.682000000000002 L11.094,23.656 L11.09,23.631 L11.087,23.605 L11.084,23.578 L11.083,23.552 L11.082,23.526 L11.081,23.5 L11.082,23.474 L11.083,23.448 L11.084,23.422 L11.087,23.395 L11.09,23.369 L11.094,23.344 L11.098,23.317999999999998 L11.103,23.292 L11.109,23.267 L11.115,23.241 L11.123,23.216 L11.13,23.191000000000003 L11.139,23.166 L11.148,23.142 L11.158,23.117 L11.168,23.093 L11.179,23.07 L11.19,23.046 L11.203,23.023 L11.215,23 L11.229,22.978 L11.243,22.955 L11.257,22.933999999999997 L11.272,22.912 L11.288,22.891 L11.304,22.871000000000002 L11.321,22.851 L11.338000000000001,22.831 L11.356,22.811999999999998 L11.374,22.793 L11.393,22.775 L11.412,22.756999999999998 L11.432,22.740000000000002 L11.452,22.723 L11.473,22.707 L11.494,22.691000000000003 L11.515,22.676000000000002 L11.537,22.661 L11.559,22.647 L11.581,22.634 L11.604,22.621000000000002 L11.627,22.609 L11.651,22.597 L11.675,22.586 L11.699,22.576 L11.723,22.566000000000003 L11.748,22.557000000000002 L11.772,22.549 L11.797,22.541 L11.823,22.534 L11.848,22.528 L11.873,22.522 L11.899000000000001,22.517 L11.925,22.512 L11.951,22.509 L11.977,22.505000000000003 L12.003,22.503 L12.029,22.500999999999998 L12.055,22.5 L12.081,22.5 L12.108,22.5 z" id="svg_4"/><path d="M11.028,34 L11.056,34.001999999999995 L11.084,34.004000000000005 L11.112,34.006 L11.14,34.010000000000005 L11.168,34.013999999999996 L11.195,34.019 L11.223,34.025 L11.25,34.032 L11.277,34.039 L11.304,34.047 L11.33,34.056 L11.357,34.066 L11.383000000000001,34.076 L11.408,34.087 L11.434,34.099000000000004 L11.459,34.111999999999995 L11.484,34.125 L11.508,34.138999999999996 L11.532,34.153 L11.556000000000001,34.169 L11.579,34.184 L11.601,34.201 L11.623,34.218 L11.645,34.236000000000004 L11.666,34.254000000000005 L11.687,34.272999999999996 L11.707,34.293 L11.727,34.313 L11.746,34.334 L11.764,34.355000000000004 L11.782,34.376999999999995 L11.799,34.399 L11.816,34.421 L11.831,34.444 L11.847,34.468 L11.861,34.492000000000004 L11.875,34.516 L11.888,34.541 L11.901,34.566 L11.913,34.592 L11.924,34.617000000000004 L11.934,34.643 L11.944,34.67 L11.953,34.696 L11.961,34.723 L11.968,34.75 L11.975,34.777 L11.981,34.805 L11.986,34.832 L11.99,34.86 L11.994,34.888000000000005 L11.996,34.916 L11.998,34.944 L12,34.972 L12,35 L12,35.028 L11.998,35.056 L11.996,35.084 L11.994,35.111999999999995 L11.99,35.14 L11.986,35.168 L11.981,35.195 L11.975,35.223 L11.968,35.25 L11.961,35.277 L11.953,35.304 L11.944,35.33 L11.934,35.357 L11.924,35.382999999999996 L11.913,35.408 L11.901,35.434 L11.888,35.459 L11.875,35.484 L11.861,35.507999999999996 L11.847,35.532 L11.831,35.556 L11.816,35.579 L11.799,35.601 L11.782,35.623000000000005 L11.764,35.644999999999996 L11.746,35.666 L11.727,35.687 L11.707,35.707 L11.687,35.727000000000004 L11.666,35.745999999999995 L11.645,35.763999999999996 L11.623,35.782 L11.601,35.799 L11.579,35.816 L11.556000000000001,35.831 L11.532,35.847 L11.508,35.861000000000004 L11.484,35.875 L11.459,35.888000000000005 L11.434,35.900999999999996 L11.408,35.913 L11.383000000000001,35.924 L11.357,35.934 L11.33,35.944 L11.304,35.953 L11.277,35.961 L11.25,35.968 L11.223,35.975 L11.195,35.981 L11.168,35.986000000000004 L11.14,35.989999999999995 L11.112,35.994 L11.084,35.995999999999995 L11.056,35.998000000000005 L11.028,36 L11,36 L9,36 L8.972,36 L8.944,35.998000000000005 L8.916,35.995999999999995 L8.888,35.994 L8.86,35.989999999999995 L8.832,35.986000000000004 L8.805,35.981 L8.777,35.975 L8.75,35.968 L8.723,35.961 L8.696,35.953 L8.67,35.944 L8.643,35.934 L8.617,35.924 L8.592,35.913 L8.566,35.900999999999996 L8.541,35.888000000000005 L8.516,35.875 L8.492,35.861000000000004 L8.468,35.847 L8.444,35.831 L8.421,35.816 L8.399000000000001,35.799 L8.377,35.782 L8.355,35.763999999999996 L8.334,35.745999999999995 L8.313,35.727000000000004 L8.293,35.707 L8.273,35.687 L8.254,35.666 L8.236,35.644999999999996 L8.218,35.623000000000005 L8.201,35.601 L8.184,35.579 L8.169,35.556 L8.153,35.532 L8.139,35.507999999999996 L8.125,35.484 L8.112,35.459 L8.099,35.434 L8.087,35.408 L8.076,35.382999999999996 L8.066,35.357 L8.056,35.33 L8.047,35.304 L8.039,35.277 L8.032,35.25 L8.025,35.223 L8.019,35.195 L8.014,35.168 L8.01,35.14 L8.006,35.111999999999995 L8.004,35.084 L8.002,35.056 L8,35.028 L8,35 L8,34.972 L8.002,34.944 L8.004,34.916 L8.006,34.888000000000005 L8.01,34.86 L8.014,34.832 L8.019,34.805 L8.025,34.777 L8.032,34.75 L8.039,34.723 L8.047,34.696 L8.056,34.67 L8.066,34.643 L8.076,34.617000000000004 L8.087,34.592 L8.099,34.566 L8.112,34.541 L8.125,34.516 L8.139,34.492000000000004 L8.153,34.468 L8.169,34.444 L8.184,34.421 L8.201,34.399 L8.218,34.376999999999995 L8.236,34.355000000000004 L8.254,34.334 L8.273,34.313 L8.293,34.293 L8.313,34.272999999999996 L8.334,34.254000000000005 L8.355,34.236000000000004 L8.377,34.218 L8.399000000000001,34.201 L8.421,34.184 L8.444,34.169 L8.468,34.153 L8.492,34.138999999999996 L8.516,34.125 L8.541,34.111999999999995 L8.566,34.099000000000004 L8.592,34.087 L8.617,34.076 L8.643,34.066 L8.67,34.056 L8.696,34.047 L8.723,34.039 L8.75,34.032 L8.777,34.025 L8.805,34.019 L8.832,34.013999999999996 L8.86,34.010000000000005 L8.888,34.006 L8.916,34.004000000000005 L8.944,34.001999999999995 L8.972,34 L9,34 L11,34 L11.028,34 z" id="svg_5"/><path d="M13.84,44.5 L13.866,44.501 L13.892,44.503 L13.918,44.505 L13.944,44.509 L13.97,44.512 L13.996,44.517 L14.021,44.522 L14.047,44.528 L14.072,44.534 L14.098,44.541 L14.123,44.549 L14.147,44.557 L14.172,44.566 L14.196,44.576 L14.22,44.586 L14.244,44.597 L14.268,44.609 L14.291,44.621 L14.314,44.634 L14.336,44.647 L14.358,44.661 L14.38,44.676 L14.401,44.691 L14.422,44.707 L14.443,44.723 L14.463,44.74 L14.483,44.757 L14.502,44.775 L14.521,44.793 L14.539,44.812 L14.557,44.831 L14.574,44.851 L14.591,44.871 L14.607,44.891 L14.623,44.912 L14.638,44.934 L14.652000000000001,44.955 L14.666,44.978 L14.68,45 L14.692,45.023 L14.705,45.046 L14.716,45.069 L14.727,45.093 L14.737,45.117 L14.747,45.142 L14.756,45.166 L14.765,45.191 L14.772,45.216 L14.779,45.241 L14.786,45.267 L14.792,45.292 L14.797,45.318 L14.801,45.344 L14.805,45.369 L14.808,45.395 L14.81,45.422 L14.812,45.448 L14.813,45.474 L14.814,45.5 L14.813,45.526 L14.812,45.552 L14.81,45.578 L14.808,45.605 L14.805,45.631 L14.801,45.656 L14.797,45.682 L14.792,45.708 L14.786,45.733 L14.779,45.759 L14.772,45.784 L14.765,45.809 L14.756,45.834 L14.747,45.858 L14.737,45.883 L14.727,45.907 L14.716,45.931 L14.705,45.954 L14.692,45.977 L14.68,46 L14.666,46.023 L14.652000000000001,46.045 L14.638,46.066 L14.623,46.088 L14.607,46.109 L14.591,46.129 L14.574,46.149 L14.557,46.169 L14.539,46.188 L14.521,46.207 L14.502,46.225 L14.483,46.243 L14.463,46.26 L14.443,46.277 L14.422,46.293 L14.401,46.309 L14.38,46.324 L14.358,46.339 L14.336,46.353 L14.313,46.366 L12.581,47.366 L12.559,47.379 L12.535,47.391 L12.512,47.403 L12.488,47.414 L12.464,47.424 L12.44,47.434 L12.415,47.443 L12.39,47.451 L12.365,47.459 L12.34,47.466 L12.315,47.472 L12.289,47.478 L12.264,47.483 L12.238,47.488 L12.212,47.491 L12.186,47.495 L12.16,47.497 L12.134,47.499 L12.108,47.5 L12.081,47.5 L12.055,47.5 L12.029,47.499 L12.003,47.497 L11.977,47.495 L11.951,47.491 L11.925,47.488 L11.899000000000001,47.483 L11.873,47.478 L11.848,47.472 L11.823,47.466 L11.797,47.459 L11.772,47.451 L11.748,47.443 L11.723,47.434 L11.699,47.424 L11.675,47.414 L11.651,47.403 L11.627,47.391 L11.604,47.379 L11.581,47.366 L11.559,47.353 L11.537,47.339 L11.515,47.324 L11.494,47.309 L11.473,47.293 L11.452,47.277 L11.432,47.26 L11.412,47.243 L11.393,47.225 L11.374,47.207 L11.356,47.188 L11.338000000000001,47.169 L11.321,47.149 L11.304,47.129 L11.288,47.109 L11.272,47.088 L11.257,47.066 L11.243,47.045 L11.229,47.022 L11.215,47 L11.203,46.977 L11.19,46.954 L11.179,46.931 L11.168,46.907 L11.158,46.883 L11.148,46.858 L11.139,46.834 L11.13,46.809 L11.123,46.784 L11.115,46.759 L11.109,46.733 L11.103,46.708 L11.098,46.682 L11.094,46.656 L11.09,46.631 L11.087,46.605 L11.084,46.578 L11.083,46.552 L11.082,46.526 L11.081,46.5 L11.082,46.474 L11.083,46.448 L11.084,46.422 L11.087,46.395 L11.09,46.369 L11.094,46.344 L11.098,46.318 L11.103,46.292 L11.109,46.267 L11.115,46.241 L11.123,46.216 L11.13,46.191 L11.139,46.166 L11.148,46.142 L11.158,46.117 L11.168,46.093 L11.179,46.069 L11.19,46.046 L11.203,46.023 L11.215,46 L11.229,45.977 L11.243,45.955 L11.257,45.934 L11.272,45.912 L11.288,45.891 L11.304,45.871 L11.321,45.851 L11.338000000000001,45.831 L11.356,45.812 L11.374,45.793 L11.393,45.775 L11.412,45.757 L11.432,45.74 L11.452,45.723 L11.473,45.707 L11.494,45.691 L11.515,45.676 L11.537,45.661 L11.559,45.647 L11.581,45.634 L13.314,44.634 L13.336,44.621 L13.36,44.609 L13.383000000000001,44.597 L13.407,44.586 L13.431000000000001,44.576 L13.455,44.566 L13.48,44.557 L13.504,44.549 L13.529,44.541 L13.555,44.534 L13.58,44.528 L13.606,44.522 L13.631,44.517 L13.657,44.512 L13.683,44.509 L13.709,44.505 L13.735,44.503 L13.761,44.501 L13.787,44.5 L13.814,44.5 L13.84,44.5 z" id="svg_6"/><path d="M50.213,44.5 L50.239,44.501 L50.265,44.503 L50.291,44.505 L50.317,44.509 L50.343,44.512 L50.369,44.517 L50.394,44.522 L50.42,44.528 L50.445,44.534 L50.471,44.541 L50.496,44.549 L50.52,44.557 L50.545,44.566 L50.569,44.576 L50.593,44.586 L50.617,44.597 L50.64,44.609 L50.664,44.621 L50.686,44.634 L52.419,45.634 L52.441,45.647 L52.463,45.661 L52.485,45.676 L52.506,45.691 L52.527,45.707 L52.548,45.723 L52.568,45.74 L52.588,45.757 L52.607,45.775 L52.626,45.793 L52.644,45.812 L52.662,45.831 L52.679,45.851 L52.696,45.871 L52.712,45.891 L52.728,45.912 L52.743,45.934 L52.757,45.955 L52.771,45.977 L52.785,46 L52.797,46.023 L52.81,46.046 L52.821,46.069 L52.832,46.093 L52.842,46.117 L52.852,46.142 L52.861,46.166 L52.87,46.191 L52.877,46.216 L52.885,46.241 L52.891,46.267 L52.897,46.292 L52.902,46.318 L52.906,46.344 L52.91,46.369 L52.913,46.395 L52.916,46.422 L52.917,46.448 L52.918,46.474 L52.919,46.5 L52.918,46.526 L52.917,46.552 L52.916,46.578 L52.913,46.605 L52.91,46.631 L52.906,46.656 L52.902,46.682 L52.897,46.708 L52.891,46.733 L52.885,46.759 L52.877,46.784 L52.87,46.809 L52.861,46.834 L52.852,46.858 L52.842,46.883 L52.832,46.907 L52.821,46.931 L52.81,46.954 L52.797,46.977 L52.785,47 L52.771,47.022 L52.757,47.045 L52.743,47.066 L52.728,47.088 L52.712,47.109 L52.696,47.129 L52.679,47.149 L52.662,47.169 L52.644,47.188 L52.626,47.207 L52.607,47.225 L52.588,47.243 L52.568,47.26 L52.548,47.277 L52.527,47.293 L52.506,47.309 L52.485,47.324 L52.463,47.339 L52.441,47.353 L52.419,47.366 L52.396,47.379 L52.373,47.391 L52.349,47.403 L52.325,47.414 L52.301,47.424 L52.277,47.434 L52.252,47.443 L52.228,47.451 L52.203,47.459 L52.177,47.466 L52.152,47.472 L52.127,47.478 L52.101,47.483 L52.075,47.488 L52.049,47.491 L52.023,47.495 L51.997,47.497 L51.971,47.499 L51.945,47.5 L51.919,47.5 L51.892,47.5 L51.866,47.499 L51.84,47.497 L51.814,47.495 L51.788,47.491 L51.762,47.488 L51.736,47.483 L51.711,47.478 L51.685,47.472 L51.66,47.466 L51.635,47.459 L51.61,47.451 L51.585,47.443 L51.56,47.434 L51.536,47.424 L51.512,47.414 L51.488,47.403 L51.465,47.391 L51.441,47.379 L51.419,47.366 L49.687,46.366 L49.664,46.353 L49.642,46.339 L49.62,46.324 L49.599,46.309 L49.578,46.293 L49.557,46.277 L49.537,46.26 L49.517,46.243 L49.498,46.225 L49.479,46.207 L49.461,46.188 L49.443,46.169 L49.426,46.149 L49.409,46.129 L49.393,46.109 L49.377,46.088 L49.362,46.066 L49.348,46.045 L49.334,46.023 L49.32,46 L49.308,45.977 L49.295,45.954 L49.284,45.931 L49.273,45.907 L49.263,45.883 L49.253,45.858 L49.244,45.834 L49.235,45.809 L49.228,45.784 L49.221,45.759 L49.214,45.733 L49.208,45.708 L49.203,45.682 L49.199,45.656 L49.195,45.631 L49.192,45.605 L49.19,45.578 L49.188,45.552 L49.187,45.526 L49.186,45.5 L49.187,45.474 L49.188,45.448 L49.19,45.422 L49.192,45.395 L49.195,45.369 L49.199,45.344 L49.203,45.318 L49.208,45.292 L49.214,45.267 L49.221,45.241 L49.228,45.216 L49.235,45.191 L49.244,45.166 L49.253,45.142 L49.263,45.117 L49.273,45.093 L49.284,45.069 L49.295,45.046 L49.308,45.023 L49.32,45 L49.334,44.978 L49.348,44.955 L49.362,44.934 L49.377,44.912 L49.393,44.891 L49.409,44.871 L49.426,44.851 L49.443,44.831 L49.461,44.812 L49.479,44.793 L49.498,44.775 L49.517,44.757 L49.537,44.74 L49.557,44.723 L49.578,44.707 L49.599,44.691 L49.62,44.676 L49.642,44.661 L49.664,44.647 L49.686,44.634 L49.709,44.621 L49.732,44.609 L49.756,44.597 L49.78,44.586 L49.804,44.576 L49.828,44.566 L49.853,44.557 L49.877,44.549 L49.902,44.541 L49.928,44.534 L49.953,44.528 L49.979,44.522 L50.004,44.517 L50.03,44.512 L50.056,44.509 L50.082,44.505 L50.108,44.503 L50.134,44.501 L50.16,44.5 L50.186,44.5 L50.213,44.5 z" id="svg_7"/><path d="M55.028,34 L55.056,34.001999999999995 L55.084,34.004000000000005 L55.112,34.006 L55.14,34.010000000000005 L55.168,34.013999999999996 L55.195,34.019 L55.223,34.025 L55.25,34.032 L55.277,34.039 L55.304,34.047 L55.33,34.056 L55.357,34.066 L55.383,34.076 L55.408,34.087 L55.434,34.099000000000004 L55.459,34.111999999999995 L55.484,34.125 L55.508,34.138999999999996 L55.532,34.153 L55.556,34.169 L55.579,34.184 L55.601,34.201 L55.623,34.218 L55.645,34.236000000000004 L55.666,34.254000000000005 L55.687,34.272999999999996 L55.707,34.293 L55.727,34.313 L55.746,34.334 L55.764,34.355000000000004 L55.782,34.376999999999995 L55.799,34.399 L55.816,34.421 L55.831,34.444 L55.847,34.468 L55.861,34.492000000000004 L55.875,34.516 L55.888,34.541 L55.901,34.566 L55.913,34.592 L55.924,34.617000000000004 L55.934,34.643 L55.944,34.67 L55.953,34.696 L55.961,34.723 L55.968,34.75 L55.975,34.777 L55.981,34.805 L55.986,34.832 L55.99,34.86 L55.994,34.888000000000005 L55.996,34.916 L55.998,34.944 L56,34.972 L56,35 L56,35.028 L55.998,35.056 L55.996,35.084 L55.994,35.111999999999995 L55.99,35.14 L55.986,35.168 L55.981,35.195 L55.975,35.223 L55.968,35.25 L55.961,35.277 L55.953,35.304 L55.944,35.33 L55.934,35.357 L55.924,35.382999999999996 L55.913,35.408 L55.901,35.434 L55.888,35.459 L55.875,35.484 L55.861,35.507999999999996 L55.847,35.532 L55.831,35.556 L55.816,35.579 L55.799,35.601 L55.782,35.623000000000005 L55.764,35.644999999999996 L55.746,35.666 L55.727,35.687 L55.707,35.707 L55.687,35.727000000000004 L55.666,35.745999999999995 L55.645,35.763999999999996 L55.623,35.782 L55.601,35.799 L55.579,35.816 L55.556,35.831 L55.532,35.847 L55.508,35.861000000000004 L55.484,35.875 L55.459,35.888000000000005 L55.434,35.900999999999996 L55.408,35.913 L55.383,35.924 L55.357,35.934 L55.33,35.944 L55.304,35.953 L55.277,35.961 L55.25,35.968 L55.223,35.975 L55.195,35.981 L55.168,35.986000000000004 L55.14,35.989999999999995 L55.112,35.994 L55.084,35.995999999999995 L55.056,35.998000000000005 L55.028,36 L55,36 L53,36 L52.972,36 L52.944,35.998000000000005 L52.916,35.995999999999995 L52.888,35.994 L52.86,35.989999999999995 L52.832,35.986000000000004 L52.805,35.981 L52.777,35.975 L52.75,35.968 L52.723,35.961 L52.696,35.953 L52.67,35.944 L52.643,35.934 L52.617,35.924 L52.592,35.913 L52.566,35.900999999999996 L52.541,35.888000000000005 L52.516,35.875 L52.492,35.861000000000004 L52.468,35.847 L52.444,35.831 L52.421,35.816 L52.399,35.799 L52.377,35.782 L52.355,35.763999999999996 L52.334,35.745999999999995 L52.313,35.727000000000004 L52.293,35.707 L52.273,35.687 L52.254,35.666 L52.236,35.644999999999996 L52.218,35.623000000000005 L52.201,35.601 L52.184,35.579 L52.169,35.556 L52.153,35.532 L52.139,35.507999999999996 L52.125,35.484 L52.112,35.459 L52.099,35.434 L52.087,35.408 L52.076,35.382999999999996 L52.066,35.357 L52.056,35.33 L52.047,35.304 L52.039,35.277 L52.032,35.25 L52.025,35.223 L52.019,35.195 L52.014,35.168 L52.01,35.14 L52.006,35.111999999999995 L52.004,35.084 L52.002,35.056 L52,35.028 L52,35 L52,34.972 L52.002,34.944 L52.004,34.916 L52.006,34.888000000000005 L52.01,34.86 L52.014,34.832 L52.019,34.805 L52.025,34.777 L52.032,34.75 L52.039,34.723 L52.047,34.696 L52.056,34.67 L52.066,34.643 L52.076,34.617000000000004 L52.087,34.592 L52.099,34.566 L52.112,34.541 L52.125,34.516 L52.139,34.492000000000004 L52.153,34.468 L52.169,34.444 L52.184,34.421 L52.201,34.399 L52.218,34.376999999999995 L52.236,34.355000000000004 L52.254,34.334 L52.273,34.313 L52.293,34.293 L52.313,34.272999999999996 L52.334,34.254000000000005 L52.355,34.236000000000004 L52.377,34.218 L52.399,34.201 L52.421,34.184 L52.444,34.169 L52.468,34.153 L52.492,34.138999999999996 L52.516,34.125 L52.541,34.111999999999995 L52.566,34.099000000000004 L52.592,34.087 L52.617,34.076 L52.643,34.066 L52.67,34.056 L52.696,34.047 L52.723,34.039 L52.75,34.032 L52.777,34.025 L52.805,34.019 L52.832,34.013999999999996 L52.86,34.010000000000005 L52.888,34.006 L52.916,34.004000000000005 L52.944,34.001999999999995 L52.972,34 L53,34 L55,34 L55.028,34 z" id="svg_8"/><path d="M51.945,22.5 L51.971,22.500999999999998 L51.997,22.503 L52.023,22.505000000000003 L52.049,22.509 L52.075,22.512 L52.101,22.517 L52.127,22.522 L52.152,22.528 L52.177,22.534 L52.203,22.541 L52.228,22.549 L52.252,22.557000000000002 L52.277,22.566000000000003 L52.301,22.576 L52.325,22.586 L52.349,22.597 L52.373,22.609 L52.396,22.621000000000002 L52.419,22.634 L52.441,22.647 L52.463,22.661 L52.485,22.676000000000002 L52.506,22.691000000000003 L52.527,22.707 L52.548,22.723 L52.568,22.740000000000002 L52.588,22.756999999999998 L52.607,22.775 L52.626,22.793 L52.644,22.811999999999998 L52.662,22.831 L52.679,22.851 L52.696,22.871000000000002 L52.712,22.891 L52.728,22.912 L52.743,22.933999999999997 L52.757,22.955 L52.771,22.978 L52.785,23 L52.797,23.023 L52.81,23.046 L52.821,23.07 L52.832,23.093 L52.842,23.117 L52.852,23.142 L52.861,23.166 L52.87,23.191000000000003 L52.877,23.216 L52.885,23.241 L52.891,23.267 L52.897,23.292 L52.902,23.317999999999998 L52.906,23.344 L52.91,23.369 L52.913,23.395 L52.916,23.422 L52.917,23.448 L52.918,23.474 L52.919,23.5 L52.918,23.526 L52.917,23.552 L52.916,23.578 L52.913,23.605 L52.91,23.631 L52.906,23.656 L52.902,23.682000000000002 L52.897,23.708 L52.891,23.733 L52.885,23.759 L52.877,23.784 L52.87,23.808999999999997 L52.861,23.834 L52.852,23.858 L52.842,23.883000000000003 L52.832,23.907 L52.821,23.931 L52.81,23.954 L52.797,23.977 L52.785,24 L52.771,24.023 L52.757,24.045 L52.743,24.066 L52.728,24.088 L52.712,24.109 L52.696,24.129 L52.679,24.149 L52.662,24.169 L52.644,24.188 L52.626,24.207 L52.607,24.225 L52.588,24.243 L52.568,24.26 L52.548,24.277 L52.527,24.293 L52.506,24.309 L52.485,24.324 L52.463,24.339 L52.441,24.353 L52.419,24.366 L50.686,25.366 L50.664,25.379 L50.64,25.391000000000002 L50.617,25.403 L50.593,25.414 L50.569,25.424 L50.545,25.434 L50.52,25.443 L50.496,25.451 L50.471,25.459 L50.445,25.466 L50.42,25.472 L50.394,25.478 L50.369,25.483 L50.343,25.488 L50.317,25.491 L50.291,25.495 L50.265,25.497 L50.239,25.499 L50.213,25.5 L50.186,25.5 L50.16,25.5 L50.134,25.499 L50.108,25.497 L50.082,25.495 L50.056,25.491 L50.03,25.488 L50.004,25.483 L49.979,25.478 L49.953,25.472 L49.928,25.466 L49.902,25.459 L49.877,25.451 L49.853,25.443 L49.828,25.434 L49.804,25.424 L49.78,25.414 L49.756,25.403 L49.732,25.391000000000002 L49.709,25.379 L49.686,25.366 L49.664,25.353 L49.642,25.339 L49.62,25.324 L49.599,25.309 L49.578,25.293 L49.557,25.277 L49.537,25.26 L49.517,25.243 L49.498,25.225 L49.479,25.207 L49.461,25.188 L49.443,25.169 L49.426,25.149 L49.409,25.129 L49.393,25.109 L49.377,25.088 L49.362,25.066 L49.348,25.045 L49.334,25.022 L49.32,25 L49.308,24.977 L49.295,24.954 L49.284,24.93 L49.273,24.907 L49.263,24.883 L49.253,24.858 L49.244,24.834 L49.235,24.809 L49.228,24.784 L49.221,24.759 L49.214,24.733 L49.208,24.708 L49.203,24.682 L49.199,24.656 L49.195,24.631 L49.192,24.605 L49.19,24.578 L49.188,24.552 L49.187,24.526 L49.186,24.5 L49.187,24.474 L49.188,24.448 L49.19,24.422 L49.192,24.395 L49.195,24.369 L49.199,24.344 L49.203,24.318 L49.208,24.292 L49.214,24.267 L49.221,24.241 L49.228,24.216 L49.235,24.191 L49.244,24.166 L49.253,24.142 L49.263,24.117 L49.273,24.093 L49.284,24.069 L49.295,24.046 L49.308,24.023 L49.32,24 L49.334,23.977 L49.348,23.955 L49.362,23.933999999999997 L49.377,23.912 L49.393,23.891 L49.409,23.871000000000002 L49.426,23.851 L49.443,23.831 L49.461,23.811999999999998 L49.479,23.793 L49.498,23.775 L49.517,23.756999999999998 L49.537,23.740000000000002 L49.557,23.723 L49.578,23.707 L49.599,23.691000000000003 L49.62,23.676000000000002 L49.642,23.661 L49.664,23.647 L49.687,23.634 L51.419,22.634 L51.441,22.621000000000002 L51.465,22.609 L51.488,22.597 L51.512,22.586 L51.536,22.576 L51.56,22.566000000000003 L51.585,22.557000000000002 L51.61,22.549 L51.635,22.541 L51.66,22.534 L51.685,22.528 L51.711,22.522 L51.736,22.517 L51.762,22.512 L51.788,22.509 L51.814,22.505000000000003 L51.84,22.503 L51.866,22.500999999999998 L51.892,22.5 L51.919,22.5 L51.945,22.5 z" id="svg_9"/><path d="M43.526,14.082 L43.552,14.083 L43.578,14.084 L43.605,14.087 L43.631,14.09 L43.656,14.094000000000001 L43.682,14.097999999999999 L43.708,14.103 L43.733,14.109 L43.759,14.115 L43.784,14.123000000000001 L43.809,14.129999999999999 L43.834,14.139 L43.858,14.148 L43.883,14.158000000000001 L43.907,14.168 L43.931,14.179 L43.954,14.190000000000001 L43.977,14.203 L44,14.215 L44.022,14.229 L44.045,14.243 L44.066,14.257 L44.088,14.272 L44.109,14.288 L44.129,14.304 L44.149,14.321 L44.169,14.338000000000001 L44.188,14.356 L44.207,14.373999999999999 L44.225,14.393 L44.243,14.411999999999999 L44.26,14.432 L44.277,14.452 L44.293,14.472999999999999 L44.309,14.494 L44.324,14.515 L44.339,14.536999999999999 L44.353,14.559000000000001 L44.366,14.581 L44.379,14.604 L44.391,14.626999999999999 L44.403,14.651 L44.414,14.675 L44.424,14.699 L44.434,14.722999999999999 L44.443,14.748000000000001 L44.451,14.772 L44.459,14.797 L44.466,14.823 L44.472,14.847999999999999 L44.478,14.873000000000001 L44.483,14.899000000000001 L44.488,14.925 L44.491,14.951 L44.495,14.977 L44.497,15.003 L44.499,15.029 L44.5,15.055 L44.5,15.081 L44.5,15.108 L44.499,15.134 L44.497,15.16 L44.495,15.186 L44.491,15.212 L44.488,15.238 L44.483,15.264 L44.478,15.289 L44.472,15.315000000000001 L44.466,15.34 L44.459,15.365 L44.451,15.39 L44.443,15.415 L44.434,15.440000000000001 L44.424,15.464 L44.414,15.488 L44.403,15.512 L44.391,15.535 L44.379,15.559000000000001 L44.366,15.581 L43.366,17.313000000000002 L43.353,17.336 L43.339,17.358 L43.324,17.380000000000003 L43.309,17.401 L43.293,17.422 L43.277,17.442999999999998 L43.26,17.463 L43.243,17.483 L43.225,17.502000000000002 L43.207,17.521 L43.188,17.539 L43.169,17.557000000000002 L43.149,17.573999999999998 L43.129,17.591 L43.109,17.607 L43.088,17.622999999999998 L43.066,17.637999999999998 L43.045,17.652 L43.023,17.666 L43,17.68 L42.977,17.692 L42.954,17.705 L42.931,17.716 L42.907,17.727 L42.883,17.737000000000002 L42.858,17.747 L42.834,17.756 L42.809,17.765 L42.784,17.772 L42.759,17.779 L42.733,17.786 L42.708,17.792 L42.682,17.797 L42.656,17.801000000000002 L42.631,17.805 L42.605,17.808 L42.578,17.810000000000002 L42.552,17.811999999999998 L42.526,17.813000000000002 L42.5,17.813000000000002 L42.474,17.813000000000002 L42.448,17.811999999999998 L42.422,17.810000000000002 L42.395,17.808 L42.369,17.805 L42.344,17.801000000000002 L42.318,17.797 L42.292,17.792 L42.267,17.786 L42.241,17.779 L42.216,17.772 L42.191,17.765 L42.166,17.756 L42.142,17.747 L42.117,17.737000000000002 L42.093,17.727 L42.069,17.716 L42.046,17.705 L42.023,17.692 L42,17.68 L41.978,17.666 L41.955,17.652 L41.934,17.637999999999998 L41.912,17.622999999999998 L41.891,17.607 L41.871,17.591 L41.851,17.573999999999998 L41.831,17.557000000000002 L41.812,17.539 L41.793,17.521 L41.775,17.502000000000002 L41.757,17.483 L41.74,17.463 L41.723,17.442999999999998 L41.707,17.422 L41.691,17.401 L41.676,17.380000000000003 L41.661,17.358 L41.647,17.336 L41.634,17.314 L41.621,17.291 L41.609,17.268 L41.597,17.244 L41.586,17.22 L41.576,17.195999999999998 L41.566,17.172 L41.557,17.147 L41.549,17.122999999999998 L41.541,17.098 L41.534,17.072 L41.528,17.047 L41.522,17.021 L41.517,16.996000000000002 L41.512,16.97 L41.509,16.944000000000003 L41.505,16.918 L41.503,16.892 L41.501,16.866 L41.5,16.84 L41.5,16.814 L41.5,16.787 L41.501,16.761 L41.503,16.735 L41.505,16.709 L41.509,16.683 L41.512,16.657 L41.517,16.631 L41.522,16.606 L41.528,16.58 L41.534,16.555 L41.541,16.529 L41.549,16.503999999999998 L41.557,16.48 L41.566,16.455 L41.576,16.431 L41.586,16.407 L41.597,16.383000000000003 L41.609,16.36 L41.621,16.336 L41.634,16.314 L42.634,14.581 L42.647,14.559000000000001 L42.661,14.536999999999999 L42.676,14.515 L42.691,14.494 L42.707,14.472999999999999 L42.723,14.452 L42.74,14.432 L42.757,14.411999999999999 L42.775,14.393 L42.793,14.373999999999999 L42.812,14.356 L42.831,14.338000000000001 L42.851,14.321 L42.871,14.304 L42.891,14.288 L42.912,14.272 L42.934,14.257 L42.955,14.243 L42.977,14.229 L43,14.215 L43.023,14.203 L43.046,14.190000000000001 L43.069,14.179 L43.093,14.168 L43.117,14.158000000000001 L43.142,14.148 L43.166,14.139 L43.191,14.129999999999999 L43.216,14.123000000000001 L43.241,14.115 L43.267,14.109 L43.292,14.103 L43.318,14.097999999999999 L43.344,14.094000000000001 L43.369,14.09 L43.395,14.087 L43.422,14.084 L43.448,14.083 L43.474,14.082 L43.5,14.081 L43.526,14.082 z" id="svg_10"/><path d="M32.231,17.000999999999998 L32.462,17.006 L32.691,17.012999999999998 L32.921,17.023 L33.149,17.037 L33.377,17.053 L33.604,17.072 L33.83,17.094 L34.056,17.118000000000002 L34.28,17.146 L34.504,17.176000000000002 L34.727,17.209 L34.949,17.244999999999997 L35.171,17.283 L35.391,17.325 L35.611,17.369 L35.829,17.415 L36.047,17.464 L36.263,17.516 L36.479,17.570999999999998 L36.694,17.628 L36.907,17.688000000000002 L37.12,17.75 L37.331,17.814999999999998 L37.542,17.883000000000003 L37.751,17.953 L37.959,18.025 L38.166,18.1 L38.372,18.178 L38.577,18.258 L38.78,18.34 L38.983,18.425 L39.184,18.512 L39.383,18.601 L39.582,18.692999999999998 L39.779,18.787 L39.975,18.884 L40.17,18.982 L40.363,19.083 L40.555,19.186999999999998 L40.745,19.292 L40.934,19.4 L41.122,19.509999999999998 L41.308,19.622 L41.493,19.736 L41.676,19.853 L41.858,19.971 L42.038,20.092 L42.217,20.215 L42.394,20.34 L42.57,20.467 L42.744,20.596 L42.917,20.727 L43.088,20.859 L43.257,20.994 L43.425,21.131 L43.591,21.27 L43.755,21.411 L43.918,21.554000000000002 L44.078,21.698 L44.238,21.845 L44.395,21.993000000000002 L44.551,22.143 L44.704,22.295 L44.856,22.448999999999998 L45.007,22.605 L45.155,22.762 L45.301,22.921 L45.446,23.082 L45.589,23.244999999999997 L45.73,23.409 L45.868,23.575 L46.005,23.743000000000002 L46.14,23.912 L46.273,24.083 L46.404,24.256 L46.533,24.43 L46.66,24.605 L46.785,24.783 L46.908,24.961 L47.028,25.142 L47.147,25.324 L47.264,25.507 L47.378,25.692 L47.49,25.878 L47.6,26.066 L47.708,26.255 L47.813,26.445 L47.916,26.637 L48.017,26.83 L48.116,27.025 L48.213,27.221 L48.307,27.418 L48.399,27.616 L48.488,27.816 L48.575,28.017 L48.66,28.22 L48.742,28.423000000000002 L48.822,28.628 L48.9,28.834 L48.975,29.041 L49.047,29.249 L49.117,29.458 L49.184,29.668 L49.249,29.88 L49.312,30.093 L49.372,30.306 L49.429,30.521 L49.483,30.736 L49.535,30.953 L49.585,31.171 L49.631,31.389 L49.675,31.609 L49.717,31.829 L49.755,32.05 L49.791,32.272999999999996 L49.824,32.495999999999995 L49.854,32.72 L49.882,32.944 L49.906,33.17 L49.928,33.396 L49.947,33.623000000000005 L49.963,33.851 L49.976,34.079 L49.987,34.308 L49.994,34.538 L49.999,34.769 L50,34.998999999999995 L49.999,35.207 L49.995,35.413 L49.989,35.619 L49.981,35.825 L49.97,36.031 L49.957,36.236999999999995 L49.942,36.442 L49.925,36.646 L49.905,36.851 L49.882,37.055 L49.858,37.257999999999996 L49.831,37.461 L49.802,37.664 L49.77,37.866 L49.737,38.068 L49.7,38.269 L49.662,38.47 L49.622,38.67 L49.579,38.870000000000005 L49.534,39.069 L49.487,39.266999999999996 L49.437,39.465 L49.386,39.662 L49.332,39.859 L49.275,40.054 L49.217,40.25 L49.157,40.444 L49.094,40.638 L49.029,40.831 L48.962,41.023 L48.893,41.215 L48.821,41.405 L48.748,41.595 L48.672,41.784 L48.594,41.972 L48.515,42.159 L48.432,42.346000000000004 L48.348,42.531 L48.262,42.716 L48.174,42.899 L48.083,43.082 L47.991,43.264 L47.896,43.444 L47.799,43.624 L47.701,43.802 L47.6,43.98 L47.497,44.156 L47.392,44.332 L47.285,44.506 L47.176,44.679 L47.065,44.851 L46.952,45.022 L46.837,45.191 L46.72,45.359 L46.601,45.527 L46.48,45.692 L46.357,45.857 L46.232,46.02 L46.105,46.182 L45.976,46.343 L45.845,46.502 L45.712,46.66 L45.578,46.817 L45.447,46.965 L45.445,46.969 L45.338,47.09 L45.236,47.208 L45.136,47.327 L45.037,47.447 L44.94,47.568 L44.844,47.69 L44.75,47.813 L44.657000000000004,47.937 L44.566,48.062 L44.476,48.188 L44.388,48.315 L44.301,48.443 L44.216,48.571 L44.132,48.701 L44.05,48.831 L43.969,48.963 L43.89,49.095 L43.812,49.228 L43.736,49.362 L43.662,49.496 L43.589,49.631 L43.517,49.768 L43.447,49.905 L43.379,50.042 L43.312,50.181 L43.247,50.32 L43.184,50.459 L43.122,50.6 L43.062,50.741 L43.003,50.883 L42.946,51.025 L42.89,51.168 L42.836,51.312 L42.784,51.457 L42.734,51.601 L42.685,51.747 L42.637,51.893 L42.592,52.04 L42.548,52.187 L42.505,52.334 L42.464,52.483 L42.425,52.631 L42.388,52.78 L42.352,52.93 L42.318,53.08 L42.286,53.23 L42.256,53.381 L42.227,53.533 L42.199,53.684 L42.174,53.836 L42.15,53.989 L42.128,54.142 L42.108,54.295 L42.089,54.448 L42.072,54.602 L42.057,54.756 L42.044,54.91 L42.032,55.065 L42.023,55.22 L42.014,55.375 L42.008,55.53 L42.004,55.685 L42.001,55.841 L42,56 L42,56 L41.993,56.121 L41.971,56.239 L41.935,56.355 L41.885,56.465 L41.823,56.568 L41.749,56.663 L41.663,56.749 L41.568,56.823 L41.465,56.885 L41.355,56.935 L41.239,56.971 L41.121,56.993 L41,57 L23,57 L22.879,56.993 L22.761,56.971 L22.645,56.935 L22.535,56.885 L22.432,56.823 L22.337,56.749 L22.251,56.663 L22.177,56.568 L22.115,56.465 L22.065,56.355 L22.029,56.239 L22.007,56.121 L22,56 L22,56 L21.999,55.841 L21.996,55.685 L21.992,55.53 L21.986,55.374 L21.978,55.219 L21.968,55.064 L21.957,54.91 L21.943,54.756 L21.928,54.601 L21.911,54.448 L21.893,54.294 L21.873,54.141 L21.851,53.988 L21.827,53.836 L21.802,53.684 L21.774,53.532 L21.746,53.381 L21.715,53.23 L21.683,53.079 L21.649,52.929 L21.613,52.78 L21.576,52.631 L21.537,52.482 L21.496,52.334 L21.454,52.186 L21.41,52.039 L21.364,51.892 L21.317,51.746 L21.268,51.601 L21.217,51.456 L21.165,51.312 L21.111,51.168 L21.056,51.025 L20.998,50.882 L20.94,50.741 L20.879,50.599 L20.817,50.459 L20.754,50.319 L20.689,50.18 L20.622,50.042 L20.554,49.904 L20.484,49.767 L20.413,49.631 L20.34,49.496 L20.265,49.361 L20.189,49.227 L20.111,49.094 L20.032,48.962 L19.951,48.831 L19.869,48.7 L19.785,48.571 L19.7,48.442 L19.613,48.315 L19.525,48.188 L19.435,48.062 L19.344,47.937 L19.251,47.813 L19.156,47.69 L19.061,47.568 L18.963,47.447 L18.865,47.327 L18.764,47.208 L18.663,47.09 L18.555,46.968 L18.422,46.817 L18.288,46.66 L18.155,46.502 L18.024,46.343 L17.895,46.182 L17.768,46.02 L17.643,45.857 L17.52,45.692 L17.399,45.527 L17.28,45.359 L17.163,45.191 L17.048,45.022 L16.935,44.851 L16.824,44.679 L16.715,44.506 L16.608,44.332 L16.503,44.156 L16.4,43.98 L16.299,43.802 L16.201,43.624 L16.104,43.444 L16.009,43.264 L15.917,43.082 L15.826,42.899 L15.738,42.716 L15.652000000000001,42.531 L15.568,42.346000000000004 L15.485,42.159 L15.406,41.972 L15.328,41.784 L15.252,41.595 L15.179,41.405 L15.107,41.215 L15.038,41.023 L14.971,40.831 L14.906,40.638 L14.843,40.444 L14.783,40.25 L14.725,40.054 L14.668,39.859 L14.615,39.662 L14.563,39.465 L14.513,39.266999999999996 L14.466,39.069 L14.421,38.870000000000005 L14.378,38.67 L14.338000000000001,38.47 L14.299,38.269 L14.263,38.068 L14.23,37.866 L14.198,37.664 L14.169,37.461 L14.142,37.257999999999996 L14.118,37.055 L14.095,36.851 L14.075,36.646 L14.058,36.442 L14.043,36.236999999999995 L14.03,36.031 L14.019,35.825 L14.011,35.619 L14.005,35.413 L14.001,35.207 L14,34.998999999999995 L14.001,34.769 L14.006,34.538 L14.013,34.308 L14.024,34.079 L14.037,33.851 L14.053,33.623000000000005 L14.072,33.396 L14.094,33.17 L14.118,32.944 L14.146,32.72 L14.176,32.495999999999995 L14.209,32.272999999999996 L14.245,32.05 L14.283,31.829 L14.325,31.609 L14.369,31.389 L14.415,31.171 L14.465,30.953 L14.517,30.736 L14.571,30.521 L14.628,30.306 L14.688,30.093 L14.751,29.88 L14.816,29.668 L14.883000000000001,29.458 L14.953,29.249 L15.025,29.041 L15.1,28.834 L15.178,28.628 L15.258,28.423000000000002 L15.34,28.22 L15.425,28.017 L15.512,27.816 L15.601,27.616 L15.693,27.418 L15.787,27.221 L15.884,27.025 L15.983,26.83 L16.084,26.637 L16.187,26.445 L16.292,26.255 L16.4,26.066 L16.51,25.878 L16.622,25.692 L16.736,25.507 L16.853,25.324 L16.972,25.142 L17.092,24.961 L17.215,24.783 L17.34,24.605 L17.467,24.43 L17.596,24.256 L17.727,24.083 L17.86,23.912 L17.995,23.743000000000002 L18.132,23.575 L18.27,23.409 L18.411,23.244999999999997 L18.554,23.082 L18.699,22.921 L18.845,22.762 L18.993,22.605 L19.144,22.448999999999998 L19.296,22.295 L19.449,22.143 L19.605,21.993000000000002 L19.762,21.845 L19.922,21.698 L20.083,21.554000000000002 L20.245,21.411 L20.409,21.27 L20.575,21.131 L20.743,20.994 L20.912,20.859 L21.083,20.727 L21.256,20.596 L21.43,20.467 L21.606,20.34 L21.783,20.215 L21.962,20.092 L22.142,19.971 L22.324,19.853 L22.507,19.736 L22.692,19.622 L22.878,19.509999999999998 L23.066,19.4 L23.255,19.292 L23.445,19.186999999999998 L23.637,19.083 L23.83,18.982 L24.025,18.884 L24.221,18.787 L24.418,18.692999999999998 L24.617,18.601 L24.816,18.512 L25.017,18.425 L25.22,18.34 L25.423000000000002,18.258 L25.628,18.178 L25.834,18.1 L26.041,18.025 L26.249,17.953 L26.458,17.883000000000003 L26.669,17.814999999999998 L26.88,17.75 L27.093,17.688000000000002 L27.306,17.628 L27.521,17.570999999999998 L27.737000000000002,17.516 L27.953,17.464 L28.171,17.415 L28.389,17.369 L28.609,17.325 L28.829,17.283 L29.051,17.244999999999997 L29.273,17.209 L29.496,17.176000000000002 L29.72,17.146 L29.944,17.118000000000002 L30.17,17.094 L30.396,17.072 L30.623,17.053 L30.851,17.037 L31.079,17.023 L31.309,17.012999999999998 L31.538,17.006 L31.769,17.000999999999998 L32,17 L32.231,17.000999999999998 zM31.795,19.000999999999998 L31.59,19.005000000000003 L31.386,19.012 L31.182,19.021 L30.979,19.033 L30.777,19.047 L30.575,19.064 L30.375,19.083 L30.174,19.105 L29.975,19.128999999999998 L29.776,19.156 L29.578,19.185000000000002 L29.381,19.217 L29.185,19.250999999999998 L28.989,19.288 L28.795,19.326999999999998 L28.601,19.368000000000002 L28.408,19.412 L28.215,19.458 L28.024,19.506999999999998 L27.833,19.558 L27.644,19.611 L27.455,19.666 L27.268,19.724 L27.081,19.784 L26.895,19.846 L26.71,19.91 L26.526,19.977 L26.343,20.045 L26.162,20.116 L25.981,20.189 L25.801,20.265 L25.623,20.342 L25.445,20.422 L25.269,20.503 L25.094,20.587 L24.919,20.673000000000002 L24.746,20.759999999999998 L24.575,20.85 L24.404,20.942 L24.235,21.036 L24.066,21.131999999999998 L23.899,21.229 L23.734,21.329 L23.569,21.431 L23.406,21.535 L23.244,21.64 L23.084,21.747 L22.925,21.857 L22.767,21.968 L22.611,22.081 L22.456,22.195999999999998 L22.302,22.311999999999998 L22.15,22.431 L21.999,22.551000000000002 L21.85,22.673000000000002 L21.702,22.797 L21.556,22.922 L21.411,23.049 L21.267,23.178 L21.126,23.308 L20.986,23.441000000000003 L20.847,23.573999999999998 L20.71,23.71 L20.574,23.847 L20.441,23.985 L20.309,24.126 L20.178,24.267 L20.049,24.411 L19.922,24.555 L19.797,24.702 L19.673000000000002,24.85 L19.551,24.999 L19.431,25.15 L19.312,25.302 L19.196,25.455 L19.081,25.61 L18.968,25.767 L18.857,25.925 L18.748,26.084 L18.64,26.244 L18.535,26.406 L18.431,26.569 L18.329,26.734 L18.23,26.899 L18.132,27.066 L18.036,27.234 L17.942,27.404 L17.85,27.574 L17.76,27.746 L17.673000000000002,27.919 L17.587,28.093 L17.503,28.269 L17.422,28.445 L17.342,28.623 L17.265,28.801 L17.19,28.981 L17.116,29.162 L17.046,29.343 L16.977,29.526 L16.91,29.71 L16.846,29.895 L16.784,30.081 L16.724,30.267 L16.666,30.455 L16.611,30.644 L16.558,30.833 L16.507,31.024 L16.459,31.215 L16.412,31.407 L16.369,31.6 L16.327,31.794 L16.288,31.989 L16.252,32.185 L16.217,32.381 L16.186,32.578 L16.156,32.775999999999996 L16.129,32.975 L16.105,33.174 L16.083,33.373999999999995 L16.064,33.575 L16.047,33.777 L16.033,33.979 L16.021,34.182 L16.012,34.385000000000005 L16.005,34.59 L16.001,34.794 L16,35 L16.001,35.184 L16.004,35.367000000000004 L16.009,35.551 L16.017,35.734 L16.026,35.916 L16.038,36.099000000000004 L16.051,36.281 L16.067,36.463 L16.085,36.644999999999996 L16.105,36.826 L16.126,37.007000000000005 L16.15,37.188 L16.176,37.367999999999995 L16.204,37.548 L16.234,37.727000000000004 L16.266,37.906 L16.3,38.084 L16.336,38.262 L16.374,38.439 L16.414,38.616 L16.456,38.793 L16.5,38.969 L16.546,39.144 L16.594,39.319 L16.644,39.492999999999995 L16.696,39.666 L16.75,39.839 L16.805,40.011 L16.863,40.183 L16.923000000000002,40.354 L16.984,40.524 L17.048,40.693 L17.113,40.862 L17.18,41.03 L17.249,41.197 L17.32,41.364 L17.393,41.53 L17.468,41.694 L17.545,41.859 L17.623,42.022 L17.704,42.184 L17.786,42.346000000000004 L17.87,42.506 L17.956,42.666 L18.044,42.824 L18.134,42.982 L18.225,43.139 L18.318,43.295 L18.413,43.45 L18.51,43.604 L18.609,43.756 L18.709,43.908 L18.812,44.059 L18.916,44.208 L19.022,44.357 L19.129,44.504 L19.238,44.651 L19.349,44.796 L19.462,44.94 L19.577,45.083 L19.693,45.224 L19.811,45.365 L19.931,45.504 L20.056,45.646 L20.17,45.775 L20.287,45.911 L20.402,46.047 L20.515,46.185 L20.627,46.324 L20.737000000000002,46.464 L20.845,46.605 L20.951,46.747 L21.056,46.891 L21.159,47.035 L21.261,47.181 L21.36,47.327 L21.458,47.475 L21.555,47.624 L21.649,47.773 L21.742,47.924 L21.832,48.076 L21.922,48.228 L22.009,48.382 L22.095,48.536 L22.178,48.692 L22.26,48.848 L22.34,49.005 L22.419,49.163 L22.495,49.322 L22.57,49.481 L22.643,49.642 L22.714,49.803 L22.783,49.965 L22.851,50.128 L22.916,50.291 L22.98,50.455 L23.042,50.62 L23.102,50.786 L23.16,50.952 L23.216,51.119 L23.27,51.287 L23.323,51.455 L23.373,51.624 L23.422,51.793 L23.468,51.963 L23.513,52.134 L23.556,52.305 L23.597,52.477 L23.636,52.649 L23.673000000000002,52.822 L23.708,52.995 L23.741,53.169 L23.772,53.343 L23.801,53.517 L23.829,53.692 L23.854,53.868 L23.877,54.043 L23.898,54.219 L23.918,54.396 L23.935,54.573 L23.95,54.75 L23.963,54.927 L23.968,55 L40.032,55 L40.037,54.927 L40.05,54.749 L40.066,54.572 L40.083,54.395 L40.102,54.219 L40.124,54.043 L40.147,53.867 L40.172,53.692 L40.2,53.517 L40.229,53.342 L40.26,53.168 L40.293,52.995 L40.328,52.822 L40.365,52.649 L40.404,52.477 L40.445,52.305 L40.488,52.134 L40.533,51.964 L40.58,51.794 L40.628,51.624 L40.679,51.455 L40.731,51.287 L40.786,51.12 L40.842,50.953 L40.9,50.786 L40.96,50.621 L41.022,50.456 L41.085,50.292 L41.151,50.128 L41.218,49.966 L41.287,49.804 L41.358,49.642 L41.431,49.482 L41.506,49.322 L41.582,49.164 L41.661,49.006 L41.741,48.849 L41.823,48.692 L41.907,48.537 L41.992,48.383 L42.079,48.229 L42.168,48.077 L42.259,47.925 L42.352,47.774 L42.446,47.625 L42.542,47.476 L42.64,47.328 L42.74,47.182 L42.841,47.036 L42.944,46.892 L43.049,46.748 L43.155,46.606 L43.264,46.465 L43.373,46.325 L43.485,46.186 L43.598,46.048 L43.713,45.911 L43.83,45.776 L43.941,45.65 L43.944,45.646 L44.069,45.504 L44.189,45.365 L44.307,45.224 L44.423,45.083 L44.538,44.94 L44.651,44.796 L44.762,44.651 L44.871,44.504 L44.978,44.357 L45.084,44.208 L45.188,44.059 L45.291,43.908 L45.391,43.756 L45.49,43.604 L45.587,43.45 L45.682,43.295 L45.775,43.139 L45.866,42.982 L45.956,42.824 L46.044,42.666 L46.13,42.506 L46.214,42.346000000000004 L46.296,42.184 L46.377,42.022 L46.455,41.859 L46.532,41.694 L46.607,41.53 L46.68,41.364 L46.751,41.197 L46.82,41.03 L46.887,40.862 L46.952,40.693 L47.016,40.524 L47.077,40.354 L47.137,40.183 L47.195,40.011 L47.25,39.839 L47.304,39.666 L47.356,39.492999999999995 L47.406,39.319 L47.454,39.144 L47.5,38.969 L47.544,38.793 L47.586,38.616 L47.626,38.439 L47.664,38.262 L47.7,38.084 L47.734,37.906 L47.766,37.727000000000004 L47.796,37.548 L47.824,37.367999999999995 L47.85,37.188 L47.874,37.007000000000005 L47.895,36.826 L47.915,36.644999999999996 L47.933,36.463 L47.949,36.281 L47.962,36.099000000000004 L47.974,35.916 L47.983,35.734 L47.991,35.551 L47.996,35.367000000000004 L47.999,35.184 L48,35 L47.999,34.794 L47.995,34.59 L47.988,34.385000000000005 L47.979,34.182 L47.967,33.979 L47.953,33.777 L47.936,33.575 L47.917,33.373999999999995 L47.895,33.174 L47.871,32.975 L47.844,32.775999999999996 L47.814,32.578 L47.783,32.381 L47.748,32.185 L47.712,31.989 L47.673,31.794 L47.631,31.6 L47.588,31.407 L47.541,31.215 L47.493,31.024 L47.442,30.833 L47.389,30.644 L47.334,30.455 L47.276,30.267 L47.216,30.081 L47.154,29.895 L47.09,29.71 L47.023,29.526 L46.954,29.343 L46.884,29.162 L46.81,28.981 L46.735,28.801 L46.658,28.623 L46.578,28.445 L46.497,28.269 L46.413,28.093 L46.327,27.919 L46.24,27.746 L46.15,27.574 L46.058,27.404 L45.964,27.234 L45.868,27.066 L45.77,26.899 L45.671,26.734 L45.569,26.569 L45.465,26.406 L45.36,26.244 L45.252,26.084 L45.143,25.925 L45.032,25.767 L44.919,25.61 L44.804,25.455 L44.688,25.302 L44.569,25.15 L44.449,24.999 L44.327,24.85 L44.203,24.702 L44.078,24.555 L43.951,24.411 L43.822,24.267 L43.691,24.126 L43.559,23.985 L43.426,23.847 L43.29,23.71 L43.153,23.573999999999998 L43.014,23.441000000000003 L42.874,23.308 L42.733,23.178 L42.589,23.049 L42.444,22.922 L42.298,22.797 L42.15,22.673000000000002 L42.001,22.551000000000002 L41.85,22.431 L41.698,22.311999999999998 L41.544,22.195999999999998 L41.389,22.081 L41.233,21.968 L41.075,21.857 L40.916,21.747 L40.756,21.64 L40.594,21.535 L40.431,21.431 L40.266,21.329 L40.101,21.229 L39.934,21.131999999999998 L39.765,21.036 L39.596000000000004,20.942 L39.425,20.85 L39.254,20.759999999999998 L39.081,20.673000000000002 L38.906,20.587 L38.731,20.503 L38.555,20.422 L38.377,20.342 L38.199,20.265 L38.019,20.189 L37.838,20.116 L37.656,20.045 L37.474,19.977 L37.29,19.91 L37.105,19.846 L36.919,19.784 L36.732,19.724 L36.545,19.666 L36.356,19.611 L36.167,19.558 L35.976,19.506999999999998 L35.785,19.458 L35.592,19.412 L35.399,19.368000000000002 L35.205,19.326999999999998 L35.011,19.288 L34.815,19.250999999999998 L34.619,19.217 L34.422,19.185000000000002 L34.224,19.156 L34.025,19.128999999999998 L33.826,19.105 L33.625,19.083 L33.425,19.064 L33.223,19.047 L33.021,19.033 L32.818,19.021 L32.614,19.012 L32.41,19.005000000000003 L32.205,19.000999999999998 L32,19 L31.795,19.000999999999998 z" id="svg_11"/><path d="M41.102,55.002 L41.203,55.01 L41.303,55.023 L41.402,55.04 L41.499,55.063 L41.595,55.09 L41.688,55.121 L41.779,55.157 L41.868,55.198 L41.954,55.242 L42.038,55.29 L42.119,55.342 L42.197,55.398 L42.273,55.457 L42.345,55.52 L42.414,55.586 L42.48,55.655 L42.543,55.727 L42.602,55.803 L42.658,55.881 L42.71,55.962 L42.758,56.046 L42.802,56.132 L42.843,56.221 L42.879,56.312 L42.91,56.405 L42.937,56.501 L42.96,56.598 L42.977,56.697 L42.99,56.797 L42.998,56.898 L43,56.987 L43,63.013 L42.998,63.102 L42.99,63.203 L42.977,63.303 L42.96,63.402 L42.937,63.499 L42.91,63.595 L42.879,63.688 L42.843,63.779 L42.802,63.868 L42.758,63.954 L42.71,64.038 L42.658,64.119 L42.602,64.197 L42.543,64.273 L42.48,64.345 L42.414,64.414 L42.345,64.47999999999999 L42.273,64.543 L42.197,64.602 L42.119,64.658 L42.038,64.71000000000001 L41.954,64.75800000000001 L41.868,64.80199999999999 L41.779,64.843 L41.688,64.87899999999999 L41.595,64.91 L41.499,64.937 L41.402,64.96000000000001 L41.303,64.977 L41.203,64.99000000000001 L41.102,64.99799999999999 L41.013,65 L22.987,65 L22.898,64.99799999999999 L22.797,64.99000000000001 L22.697,64.977 L22.598,64.96000000000001 L22.501,64.937 L22.405,64.91 L22.312,64.87899999999999 L22.221,64.843 L22.132,64.80199999999999 L22.046,64.75800000000001 L21.962,64.71000000000001 L21.881,64.658 L21.803,64.602 L21.727,64.543 L21.655,64.47999999999999 L21.586,64.414 L21.52,64.345 L21.457,64.273 L21.398,64.197 L21.342,64.119 L21.29,64.038 L21.242,63.954 L21.198,63.868 L21.157,63.779 L21.121,63.688 L21.09,63.594 L21.063,63.499 L21.04,63.402 L21.023,63.303 L21.01,63.203 L21.002,63.102 L21,63.013 L21,56.987 L21.002,56.898 L21.01,56.797 L21.023,56.697 L21.04,56.598 L21.063,56.501 L21.09,56.406 L21.121,56.312 L21.157,56.221 L21.198,56.132 L21.242,56.046 L21.29,55.962 L21.342,55.881 L21.398,55.803 L21.457,55.727 L21.52,55.655 L21.586,55.586 L21.655,55.52 L21.727,55.457 L21.803,55.398 L21.881,55.342 L21.962,55.29 L22.046,55.242 L22.132,55.198 L22.221,55.157 L22.312,55.121 L22.405,55.09 L22.501,55.063 L22.598,55.04 L22.697,55.023 L22.797,55.01 L22.898,55.002 L22.987,55 L41.013,55 L41.102,55.002 zM23.013,57 L23,57 L23,57 L23,57 L23,57.013 L23,62.987 L23,63 L23.013,63 L40.987,63 L41,63 L41,63 L41,63 L41,62.987 L41,57.013 L41,57 L41,57 L41,57 L40.987,57 L23.013,57 z" id="svg_12"/><path d="M41.133,63.009 L41.214,63.023 L41.294,63.044 L41.372,63.072 L41.447,63.106 L41.52,63.146 L41.588,63.191 L41.653,63.243 L41.713,63.299 L41.769,63.361 L41.819,63.426 L41.864,63.496 L41.902,63.569 L41.935,63.645 L41.961,63.723 L41.981,63.804 L41.993,63.885 L41.999,63.968 L41.999,64.05 L41.991,64.13300000000001 L41.977,64.214 L41.956,64.294 L41.928,64.372 L41.894,64.447 L40.167,67.902 L40.138,67.957 L40.103,68.018 L40.067,68.078 L40.028,68.136 L39.987,68.193 L39.945,68.24799999999999 L39.901,68.30199999999999 L39.855,68.35300000000001 L39.807,68.40299999999999 L39.758,68.451 L39.708,68.49799999999999 L39.655,68.542 L39.602,68.58500000000001 L39.547,68.625 L39.491,68.664 L39.433,68.701 L39.375,68.73599999999999 L39.315,68.769 L39.254,68.8 L39.192,68.82900000000001 L39.129,68.85499999999999 L39.065,68.88 L39,68.902 L38.934,68.922 L38.867,68.94 L38.8,68.956 L38.731,68.969 L38.663,68.97999999999999 L38.593,68.989 L38.523,68.995 L38.453,68.999 L38.391,69 L25.609,69 L25.547,68.999 L25.477,68.995 L25.407,68.989 L25.337,68.97999999999999 L25.269,68.969 L25.2,68.956 L25.133,68.94 L25.066,68.922 L25,68.902 L24.935,68.88 L24.871,68.85499999999999 L24.808,68.82900000000001 L24.746,68.8 L24.685,68.769 L24.625,68.73599999999999 L24.567,68.701 L24.509,68.664 L24.453,68.625 L24.398,68.58500000000001 L24.345,68.542 L24.292,68.49799999999999 L24.242,68.451 L24.193,68.40299999999999 L24.145,68.35300000000001 L24.099,68.30199999999999 L24.055,68.24799999999999 L24.013,68.193 L23.972,68.136 L23.933,68.078 L23.897,68.018 L23.862000000000002,67.957 L23.833,67.902 L22.106,64.447 L22.072,64.372 L22.044,64.294 L22.023,64.214 L22.009,64.13300000000001 L22.001,64.05 L22.001,63.968 L22.007,63.885 L22.019,63.804 L22.039,63.723 L22.065,63.645 L22.098,63.569 L22.136,63.496 L22.181,63.426 L22.231,63.361 L22.287,63.299 L22.347,63.243 L22.412,63.191 L22.48,63.146 L22.553,63.106 L22.628,63.072 L22.706,63.044 L22.786,63.023 L22.867,63.009 L22.95,63.001 L23.032,63.001 L23.115,63.007 L23.196,63.019 L23.277,63.039 L23.355,63.065 L23.431,63.098 L23.504,63.136 L23.574,63.181 L23.639,63.231 L23.701,63.287 L23.757,63.347 L23.809,63.412 L23.854,63.48 L23.894,63.553 L25.614,66.99199999999999 L25.619,67 L25.627,67 L38.373,67 L38.381,67 L38.381,67 L38.382,67 L38.382,67 L38.382,67 L38.382,67 L38.382,66.999 L38.386,66.99199999999999 L40.106,63.553 L40.146,63.48 L40.191,63.412 L40.243,63.347 L40.299,63.287 L40.361,63.231 L40.426,63.181 L40.496,63.136 L40.569,63.098 L40.645,63.065 L40.723,63.039 L40.804,63.019 L40.885,63.007 L40.968,63.001 L41.05,63.001 L41.133,63.009 z" id="svg_13"/><path d="M34.045,23.002000000000002 L34.147,23.009999999999998 L34.247,23.023 L34.346000000000004,23.041 L34.443,23.064 L34.538,23.091 L34.632,23.122999999999998 L34.723,23.159 L34.811,23.198999999999998 L34.897,23.244 L34.981,23.292 L35.062,23.344 L35.14,23.399 L35.215,23.459 L35.287,23.521 L35.356,23.587 L35.422,23.656 L35.484,23.728 L35.543,23.803 L35.599,23.881 L35.651,23.962 L35.699,24.046 L35.744,24.132 L35.784,24.22 L35.82,24.311 L35.852,24.405 L35.879,24.5 L35.902,24.597 L35.92,24.696 L35.933,24.796 L35.941,24.898 L35.943,24.994 L35.942,25.056 L35.94,25.104 L35.05,41.123 L35.043,41.209 L35.031,41.306 L35.013,41.402 L34.992,41.496 L34.965,41.589 L34.935,41.679 L34.9,41.768 L34.862,41.854 L34.82,41.938 L34.774,42.02 L34.724,42.099 L34.671,42.175 L34.615,42.248 L34.556,42.319 L34.493,42.387 L34.428,42.452 L34.359,42.514 L34.288,42.572 L34.214,42.628 L34.137,42.68 L34.058,42.729 L33.977,42.774 L33.893,42.815 L33.807,42.853 L33.718,42.886 L33.628,42.916 L33.536,42.941 L33.442,42.962 L33.347,42.979 L33.25,42.991 L33.152,42.998 L33.066,43 L30.934,43 L30.848,42.998 L30.75,42.991 L30.653,42.979 L30.558,42.962 L30.464,42.941 L30.372,42.916 L30.282,42.886 L30.193,42.853 L30.107,42.815 L30.023,42.774 L29.942,42.729 L29.863,42.68 L29.786,42.628 L29.712,42.572 L29.641000000000002,42.514 L29.572,42.452 L29.507,42.387 L29.444,42.319 L29.385,42.248 L29.329,42.175 L29.276,42.099 L29.226,42.02 L29.18,41.938 L29.138,41.854 L29.1,41.768 L29.065,41.679 L29.035,41.589 L29.008,41.496 L28.987,41.402 L28.969,41.306 L28.957,41.209 L28.95,41.123 L28.06,25.104 L28.058,25.056 L28.057,24.994 L28.059,24.898 L28.067,24.796 L28.08,24.696 L28.098,24.597 L28.121,24.5 L28.148,24.405 L28.18,24.311 L28.216,24.22 L28.256,24.132 L28.301,24.046 L28.349,23.962 L28.401,23.881 L28.457,23.803 L28.516,23.728 L28.578,23.656 L28.644,23.587 L28.713,23.521 L28.785,23.459 L28.86,23.399 L28.938,23.344 L29.019,23.292 L29.103,23.244 L29.189,23.198999999999998 L29.277,23.159 L29.368,23.122999999999998 L29.462,23.091 L29.557,23.064 L29.654,23.041 L29.753,23.023 L29.853,23.009999999999998 L29.955,23.002000000000002 L30.044,23 L33.956,23 L34.045,23.002000000000002 zM30.07,25 L30.06,25 L30.06,25 L30.059,25.001 L30.059,25.002 L30.058,25.002 L30.058,25.003 L30.057,25.003 L30.057,25.003 L30.057,25.007 L30.945,40.988 L30.946,40.998 L30.949,41 L30.958,41 L33.042,41 L33.051,41 L33.052,41 L33.052,40.999 L33.053,40.999 L33.053,40.998 L33.054,40.998 L33.054,40.997 L33.055,40.988 L33.943,25.007 L33.943,25.003 L33.943,25.003 L33.942,25.003 L33.942,25.002 L33.941,25.002 L33.941,25.001 L33.94,25 L33.94,25 L33.93,25 L30.07,25 z" id="svg_14"/><path d="M32.077,45.001 L32.154,45.004 L32.23,45.009 L32.306,45.015 L32.381,45.024 L32.456,45.034 L32.53,45.047 L32.604,45.061 L32.677,45.077 L32.749,45.095 L32.821,45.114 L32.892,45.135 L32.962,45.158 L33.031,45.182 L33.1,45.209 L33.168,45.236 L33.235,45.266 L33.301,45.297 L33.366,45.329 L33.431,45.363 L33.494,45.398 L33.556,45.435 L33.618,45.473 L33.678,45.513 L33.737,45.554 L33.795,45.597 L33.852,45.641 L33.908,45.686 L33.963,45.732 L34.017,45.78 L34.07,45.829 L34.121,45.879 L34.171,45.93 L34.22,45.983 L34.268,46.037 L34.314,46.092 L34.359,46.148 L34.403,46.205 L34.446,46.263 L34.487,46.322 L34.527,46.382 L34.565,46.444 L34.602,46.506 L34.637,46.569 L34.671,46.634 L34.703,46.699 L34.734,46.765 L34.764,46.832 L34.791,46.9 L34.818,46.969 L34.842,47.038 L34.865,47.108 L34.886,47.179 L34.905,47.251 L34.923,47.323 L34.939,47.396 L34.953,47.47 L34.966,47.544 L34.976,47.619 L34.985,47.694 L34.991,47.77 L34.996,47.846000000000004 L34.999,47.923 L35,48 L34.999,48.077 L34.996,48.154 L34.991,48.23 L34.985,48.306 L34.976,48.381 L34.966,48.456 L34.953,48.53 L34.939,48.604 L34.923,48.677 L34.905,48.749 L34.886,48.821 L34.865,48.892 L34.842,48.962 L34.818,49.031 L34.791,49.1 L34.764,49.168 L34.734,49.235 L34.703,49.301 L34.671,49.366 L34.637,49.431 L34.602,49.494 L34.565,49.556 L34.527,49.618 L34.487,49.678 L34.446,49.737 L34.403,49.795 L34.359,49.852 L34.314,49.908 L34.268,49.963 L34.22,50.017 L34.171,50.07 L34.121,50.121 L34.07,50.171 L34.017,50.22 L33.963,50.268 L33.908,50.314 L33.852,50.359 L33.795,50.403 L33.737,50.446 L33.678,50.487 L33.618,50.527 L33.556,50.565 L33.494,50.602 L33.431,50.637 L33.366,50.671 L33.301,50.703 L33.235,50.734 L33.168,50.764 L33.1,50.791 L33.031,50.818 L32.962,50.842 L32.892,50.865 L32.821,50.886 L32.749,50.905 L32.677,50.923 L32.604,50.939 L32.53,50.953 L32.456,50.966 L32.381,50.976 L32.306,50.985 L32.23,50.991 L32.154,50.996 L32.077,50.999 L32,51 L31.923000000000002,50.999 L31.846,50.996 L31.77,50.991 L31.694,50.985 L31.619,50.976 L31.544,50.966 L31.47,50.953 L31.396,50.939 L31.323,50.923 L31.251,50.905 L31.179,50.886 L31.108,50.865 L31.038,50.842 L30.969,50.818 L30.9,50.791 L30.832,50.764 L30.765,50.734 L30.699,50.703 L30.634,50.671 L30.569,50.637 L30.506,50.602 L30.444,50.565 L30.382,50.527 L30.322,50.487 L30.263,50.446 L30.205,50.403 L30.148,50.359 L30.092,50.314 L30.037,50.268 L29.983,50.22 L29.93,50.171 L29.879,50.121 L29.829,50.07 L29.78,50.017 L29.732,49.963 L29.686,49.908 L29.641000000000002,49.852 L29.597,49.795 L29.554,49.737 L29.513,49.678 L29.473,49.618 L29.435,49.556 L29.398,49.494 L29.363,49.431 L29.329,49.366 L29.297,49.301 L29.266,49.235 L29.236,49.168 L29.209,49.1 L29.182,49.031 L29.158,48.962 L29.135,48.892 L29.114,48.821 L29.095,48.749 L29.077,48.677 L29.061,48.604 L29.047,48.53 L29.034,48.456 L29.024,48.381 L29.015,48.306 L29.009,48.23 L29.004,48.154 L29.001,48.077 L29,48 L29.001,47.923 L29.004,47.846000000000004 L29.009,47.77 L29.015,47.694 L29.024,47.619 L29.034,47.544 L29.047,47.47 L29.061,47.396 L29.077,47.323 L29.095,47.251 L29.114,47.179 L29.135,47.108 L29.158,47.038 L29.182,46.969 L29.209,46.9 L29.236,46.832 L29.266,46.765 L29.297,46.699 L29.329,46.634 L29.363,46.569 L29.398,46.506 L29.435,46.444 L29.473,46.382 L29.513,46.322 L29.554,46.263 L29.597,46.205 L29.641000000000002,46.148 L29.686,46.092 L29.732,46.037 L29.78,45.983 L29.829,45.93 L29.879,45.879 L29.93,45.829 L29.983,45.78 L30.037,45.732 L30.092,45.686 L30.148,45.641 L30.205,45.597 L30.263,45.554 L30.322,45.513 L30.382,45.473 L30.444,45.435 L30.506,45.398 L30.569,45.363 L30.634,45.329 L30.699,45.297 L30.765,45.266 L30.832,45.236 L30.9,45.209 L30.969,45.182 L31.038,45.158 L31.108,45.135 L31.179,45.114 L31.251,45.095 L31.323,45.077 L31.396,45.061 L31.47,45.047 L31.544,45.034 L31.619,45.024 L31.694,45.015 L31.77,45.009 L31.846,45.004 L31.923000000000002,45.001 L32,45 L32.077,45.001 zM31.974,47 L31.948,47.001 L31.922,47.003 L31.897,47.005 L31.872,47.008 L31.847,47.012 L31.822,47.016 L31.798000000000002,47.02 L31.774,47.026 L31.75,47.031 L31.726,47.038 L31.703,47.045 L31.68,47.052 L31.657,47.06 L31.634,47.069 L31.612000000000002,47.078 L31.589,47.088 L31.568,47.098 L31.546,47.109 L31.525,47.12 L31.504,47.132 L31.483,47.144 L31.462,47.157 L31.442,47.17 L31.422,47.184 L31.403,47.198 L31.384,47.213 L31.365,47.228 L31.346,47.244 L31.328,47.26 L31.311,47.276 L31.293,47.293 L31.276,47.311 L31.26,47.328 L31.244,47.346000000000004 L31.228,47.365 L31.213,47.384 L31.198,47.403 L31.184,47.422 L31.17,47.442 L31.157,47.462 L31.144,47.483 L31.132,47.504 L31.12,47.525 L31.109,47.546 L31.098,47.568 L31.088,47.589 L31.078,47.612 L31.069,47.634 L31.06,47.657000000000004 L31.052,47.68 L31.045,47.703 L31.038,47.726 L31.031,47.75 L31.026,47.774 L31.02,47.798 L31.016,47.822 L31.012,47.847 L31.008,47.872 L31.005,47.897 L31.003,47.922 L31.001,47.948 L31,47.974 L31,48 L31,48.026 L31.001,48.052 L31.003,48.078 L31.005,48.103 L31.008,48.128 L31.012,48.153 L31.016,48.178 L31.02,48.202 L31.026,48.226 L31.031,48.25 L31.038,48.274 L31.045,48.297 L31.052,48.32 L31.06,48.343 L31.069,48.366 L31.078,48.388 L31.088,48.411 L31.098,48.432 L31.109,48.454 L31.12,48.475 L31.132,48.496 L31.144,48.517 L31.157,48.538 L31.17,48.558 L31.184,48.578 L31.198,48.597 L31.213,48.616 L31.228,48.635 L31.244,48.654 L31.26,48.672 L31.276,48.689 L31.293,48.707 L31.311,48.724 L31.328,48.74 L31.346,48.756 L31.365,48.772 L31.384,48.787 L31.403,48.802 L31.422,48.816 L31.442,48.83 L31.462,48.843 L31.483,48.856 L31.504,48.868 L31.525,48.88 L31.546,48.891 L31.568,48.902 L31.589,48.912 L31.612000000000002,48.922 L31.634,48.931 L31.657,48.94 L31.68,48.948 L31.703,48.955 L31.726,48.962 L31.75,48.969 L31.774,48.974 L31.798000000000002,48.98 L31.822,48.984 L31.847,48.988 L31.872,48.992 L31.897,48.995 L31.922,48.997 L31.948,48.999 L31.974,49 L32,49 L32.026,49 L32.052,48.999 L32.078,48.997 L32.103,48.995 L32.128,48.992 L32.153,48.988 L32.178,48.984 L32.202,48.98 L32.226,48.974 L32.25,48.969 L32.274,48.962 L32.297,48.955 L32.32,48.948 L32.343,48.94 L32.366,48.931 L32.388,48.922 L32.411,48.912 L32.432,48.902 L32.454,48.891 L32.475,48.88 L32.496,48.868 L32.517,48.856 L32.538,48.843 L32.558,48.83 L32.578,48.816 L32.597,48.802 L32.616,48.787 L32.635,48.772 L32.654,48.756 L32.672,48.74 L32.689,48.724 L32.707,48.707 L32.724,48.689 L32.74,48.672 L32.756,48.654 L32.772,48.635 L32.787,48.616 L32.802,48.597 L32.816,48.578 L32.83,48.558 L32.843,48.538 L32.856,48.517 L32.868,48.496 L32.88,48.475 L32.891,48.454 L32.902,48.432 L32.912,48.411 L32.922,48.388 L32.931,48.366 L32.94,48.343 L32.948,48.32 L32.955,48.297 L32.962,48.274 L32.969,48.25 L32.974,48.226 L32.98,48.202 L32.984,48.178 L32.988,48.153 L32.992,48.128 L32.995,48.103 L32.997,48.078 L32.999,48.052 L33,48.026 L33,48 L33,47.974 L32.999,47.948 L32.997,47.922 L32.995,47.897 L32.992,47.872 L32.988,47.847 L32.984,47.822 L32.98,47.798 L32.974,47.774 L32.969,47.75 L32.962,47.726 L32.955,47.703 L32.948,47.68 L32.94,47.657000000000004 L32.931,47.634 L32.922,47.612 L32.912,47.589 L32.902,47.568 L32.891,47.546 L32.88,47.525 L32.868,47.504 L32.856,47.483 L32.843,47.462 L32.83,47.442 L32.816,47.422 L32.802,47.403 L32.787,47.384 L32.772,47.365 L32.756,47.346000000000004 L32.74,47.328 L32.724,47.311 L32.707,47.293 L32.689,47.276 L32.672,47.26 L32.654,47.244 L32.635,47.228 L32.616,47.213 L32.597,47.198 L32.578,47.184 L32.558,47.17 L32.538,47.157 L32.517,47.144 L32.496,47.132 L32.475,47.12 L32.454,47.109 L32.432,47.098 L32.411,47.088 L32.388,47.078 L32.366,47.069 L32.343,47.06 L32.32,47.052 L32.297,47.045 L32.274,47.038 L32.25,47.031 L32.226,47.026 L32.202,47.02 L32.178,47.016 L32.153,47.012 L32.128,47.008 L32.103,47.005 L32.078,47.003 L32.052,47.001 L32.026,47 L32,47 L31.974,47 z" id="svg_15"/><path d="M23.107,24.625 L23.179,24.635 L23.25,24.651 L23.32,24.672 L23.389,24.698 L23.455,24.729 L23.519,24.764 L23.58,24.804 L23.638,24.849 L23.692,24.898 L23.743,24.95 L23.79,25.006 L23.833,25.065 L23.871,25.128 L23.904,25.192 L23.933,25.26 L23.957,25.329 L23.975,25.399 L23.989,25.471 L23.997,25.544 L24,25.617 L23.998,25.69 L23.99,25.762 L23.977,25.834 L23.958,25.905 L23.935,25.974 L23.907,26.041 L23.873,26.106 L23.835,26.169 L23.793,26.228 L23.747,26.285 L23.696,26.337 L23.616,26.415 L23.539,26.491 L23.464,26.567 L23.389,26.643 L23.315,26.72 L23.241,26.798000000000002 L23.169,26.876 L23.097,26.955 L23.026,27.034 L22.956,27.114 L22.887,27.195 L22.818,27.275 L22.75,27.357 L22.683,27.439 L22.617,27.521 L22.552,27.604 L22.487,27.688 L22.423000000000002,27.772 L22.36,27.856 L22.298000000000002,27.941 L22.236,28.027 L22.176,28.113 L22.116,28.199 L22.057,28.286 L21.998,28.373 L21.941,28.461 L21.884,28.549 L21.828,28.638 L21.773,28.727 L21.719,28.817 L21.666,28.907 L21.613,28.997 L21.561,29.088 L21.51,29.179 L21.46,29.27 L21.411,29.362 L21.362,29.455 L21.314,29.547 L21.268,29.64 L21.221,29.734 L21.176,29.828 L21.132,29.922 L21.088,30.016 L21.046,30.111 L21.004,30.206 L20.963,30.302 L20.922,30.398 L20.883,30.494 L20.844,30.59 L20.807,30.687 L20.77,30.784 L20.734,30.882 L20.699,30.979 L20.664,31.077 L20.631,31.176 L20.598,31.274 L20.566,31.373 L20.535,31.472 L20.505,31.571 L20.476,31.671 L20.448,31.77 L20.42,31.871 L20.394,31.971 L20.368,32.071 L20.343,32.172 L20.319,32.272999999999996 L20.296,32.373999999999995 L20.273,32.475 L20.252,32.577 L20.231,32.678 L20.211,32.78 L20.193,32.882000000000005 L20.175,32.985 L20.158,33.087 L20.141,33.19 L20.126,33.292 L20.112,33.394999999999996 L20.098,33.498000000000005 L20.085,33.601 L20.074,33.704 L20.063,33.808 L20.053,33.911 L20.044,34.015 L20.035,34.117999999999995 L20.028,34.222 L20.022,34.326 L20.016,34.43 L20.011,34.534 L20.008,34.638000000000005 L20.005,34.742000000000004 L20.003,34.847 L20.002,34.951 L20.002,35.055 L20.003,35.16 L20.004,35.263999999999996 L20.007,35.369 L20.01,35.473 L20.015,35.578 L20.02,35.682 L20.026,35.787 L20.033,35.891000000000005 L20.042,35.995999999999995 L20.051,36.1 L20.06,36.205 L20.071,36.309 L20.083,36.414 L20.096,36.518 L20.109,36.622 L20.124,36.727000000000004 L20.139,36.831 L20.156,36.935 L20.173,37.039 L20.191,37.144 L20.211,37.248000000000005 L20.231,37.352000000000004 L20.252,37.455 L20.274,37.559 L20.297,37.663 L20.321,37.766999999999996 L20.346,37.870000000000005 L20.372,37.973 L20.398,38.077 L20.426,38.18 L20.455,38.283 L20.484,38.385999999999996 L20.515,38.488 L20.546,38.591 L20.58,38.698 L20.6,38.768 L20.614,38.84 L20.623,38.912 L20.627,38.985 L20.625,39.058 L20.618,39.131 L20.606,39.203 L20.589,39.274 L20.566,39.343 L20.539,39.411 L20.506,39.476 L20.469,39.539 L20.428,39.599000000000004 L20.382,39.656 L20.332,39.709 L20.278,39.759 L20.221,39.805 L20.161,39.846000000000004 L20.097,39.882000000000005 L20.032,39.914 L19.964,39.942 L19.894,39.964 L19.823,39.981 L19.751,39.992000000000004 L19.678,39.998999999999995 L19.605,40 L19.532,39.995999999999995 L19.46,39.986000000000004 L19.389,39.971000000000004 L19.318,39.951 L19.25,39.926 L19.183,39.896 L19.119,39.861000000000004 L19.057,39.822 L18.999,39.778 L18.944,39.730000000000004 L18.892,39.678 L18.845,39.623000000000005 L18.801,39.564 L18.762,39.501999999999995 L18.728,39.438 L18.698,39.370999999999995 L18.674,39.302 L18.637,39.187 L18.6,39.067 L18.565,38.948 L18.53,38.828 L18.497,38.707 L18.464,38.587 L18.433,38.467 L18.403,38.346000000000004 L18.374,38.225 L18.346,38.104 L18.319,37.983000000000004 L18.294,37.862 L18.269,37.741 L18.246,37.620000000000005 L18.223,37.498000000000005 L18.202,37.376999999999995 L18.182,37.254999999999995 L18.162,37.132999999999996 L18.144,37.012 L18.127,36.89 L18.111,36.768 L18.097,36.646 L18.083,36.524 L18.07,36.402 L18.059,36.28 L18.048,36.159 L18.039,36.037 L18.03,35.915 L18.023,35.793 L18.017,35.671 L18.012,35.549 L18.008,35.427 L18.005,35.305 L18.003,35.183 L18.002,35.061 L18.002,34.94 L18.003,34.818 L18.005,34.696 L18.009,34.575 L18.013,34.454 L18.018,34.332 L18.025,34.211 L18.032,34.09 L18.041,33.969 L18.051,33.848 L18.061,33.727000000000004 L18.073,33.607 L18.086,33.486000000000004 L18.099,33.366 L18.114,33.245000000000005 L18.13,33.125 L18.147,33.006 L18.165,32.885999999999996 L18.183,32.766000000000005 L18.203,32.647 L18.224,32.528 L18.246,32.409 L18.269,32.29 L18.293,32.172 L18.318,32.053 L18.344,31.935 L18.371,31.817 L18.399,31.7 L18.428,31.582 L18.458,31.465 L18.49,31.348 L18.522,31.232 L18.555,31.116 L18.589,30.999 L18.624,30.884 L18.66,30.768 L18.697,30.653 L18.735,30.538 L18.774,30.424 L18.814,30.31 L18.855,30.196 L18.897,30.082 L18.94,29.969 L18.984,29.856 L19.029,29.744 L19.075,29.632 L19.122,29.52 L19.17,29.408 L19.219,29.297 L19.268,29.187 L19.319,29.077 L19.371,28.967 L19.424,28.857 L19.477,28.748 L19.532,28.64 L19.588,28.532 L19.644,28.424 L19.702,28.317 L19.76,28.21 L19.82,28.104 L19.88,27.998 L19.942,27.892 L20.004,27.788 L20.067,27.683 L20.132,27.579 L20.197,27.476 L20.263,27.373 L20.33,27.27 L20.398,27.169 L20.467,27.067 L20.537,26.966 L20.608,26.866 L20.679,26.766000000000002 L20.752,26.667 L20.826,26.569 L20.9,26.471 L20.976,26.373 L21.052,26.276 L21.129,26.18 L21.207,26.084 L21.287,25.989 L21.367,25.895 L21.448,25.801 L21.53,25.708 L21.612000000000002,25.615 L21.696,25.523 L21.781,25.432 L21.866,25.341 L21.953,25.251 L22.04,25.162 L22.128,25.073 L22.217,24.985 L22.304,24.901 L22.358,24.852 L22.416,24.808 L22.477,24.767 L22.54,24.731 L22.606,24.7 L22.675,24.674 L22.744,24.652 L22.816,24.636 L22.888,24.626 L22.961,24.62 L23.034,24.62 L23.107,24.625 z" id="svg_16"/><path d="M42.087,59.004 L42.174,59.015 L42.259,59.034 L42.342,59.06 L42.423,59.094 L42.5,59.134 L42.574,59.181 L42.643,59.234 L42.707,59.293 L42.766,59.357 L42.819,59.426 L42.866,59.5 L42.906,59.577 L42.94,59.658 L42.966,59.741 L42.985,59.826 L42.996,59.913 L43,60 L42.996,60.087 L42.985,60.174 L42.966,60.259 L42.94,60.342 L42.906,60.423 L42.866,60.5 L42.819,60.574 L42.766,60.643 L42.707,60.707 L42.643,60.766 L42.574,60.819 L42.5,60.866 L42.423,60.906 L42.342,60.94 L42.259,60.966 L42.174,60.985 L42.087,60.996 L42,61 L22,61 L21.913,60.996 L21.826,60.985 L21.741,60.966 L21.658,60.94 L21.577,60.906 L21.5,60.866 L21.426,60.819 L21.357,60.766 L21.293,60.707 L21.234,60.643 L21.181,60.574 L21.134,60.5 L21.094,60.423 L21.06,60.342 L21.034,60.259 L21.015,60.174 L21.004,60.087 L21,60 L21.004,59.913 L21.015,59.826 L21.034,59.741 L21.06,59.658 L21.094,59.577 L21.134,59.5 L21.181,59.426 L21.234,59.357 L21.293,59.293 L21.357,59.234 L21.426,59.181 L21.5,59.134 L21.577,59.094 L21.658,59.06 L21.741,59.034 L21.826,59.015 L21.913,59.004 L22,59 L42,59 L42.087,59.004 z" id="svg_17"/></g></g></svg>