<svg xmlns="http://www.w3.org/2000/svg" xmlns:xlink="http://www.w3.org/1999/xlink" version="1.1" x="0px" y="0px" viewBox="0 0 512 640" enable-background="new 0 0 512 512" xml:space="preserve"><g><g><path d="M493.948,373.775l-8.771-33.836l-35.211,9.127l3.01,11.615l15.117-3.918c-35.813,59.653-101.769,96.764-171.92,95.522    c-45.47-0.79-89.517-17.463-124.028-46.949l-7.795,9.123c36.625,31.292,83.366,48.986,131.614,49.824    c1.225,0.021,2.439,0.031,3.661,0.031c38.651,0,76.309-10.64,109.118-30.865c28.771-17.734,52.705-42.072,69.893-70.921    l3.695,14.257L493.948,373.775z"/><path d="M303.198,47.716c-41.935-0.735-82.608,10.987-117.577,33.881c-31.865,20.862-57.197,49.711-73.657,83.771l-4.269-13.002    l-11.401,3.742l10.901,33.21l34.561-11.345l-3.743-11.401l-15.804,5.188c32.558-68.569,101.227-112.076,177.313-112.076    c1.152,0,2.313,0.01,3.469,0.03c5.163,0.09,10.378,0.383,15.5,0.873l1.143-11.945C314.2,48.123,308.671,47.811,303.198,47.716z"/><g><path d="M440.24,120.135c-3.875-4.013-7.972-7.906-12.171-11.571l8.558-9.809c4.479,3.908,8.845,8.059,12.977,12.336     L440.24,120.135z M414.959,98.073c-4.506-3.301-9.201-6.44-13.956-9.332l6.766-11.122c5.07,3.084,10.076,6.431,14.883,9.951     L414.959,98.073z M386.306,80.641c-4.993-2.478-10.152-4.767-15.337-6.804l4.762-12.116c5.53,2.174,11.034,4.616,16.361,7.259     L386.306,80.641z M355.097,68.378c-5.346-1.583-10.822-2.952-16.282-4.068l2.607-12.754c5.824,1.191,11.669,2.651,17.372,4.34     L355.097,68.378z"/></g></g><g><rect x="121.087" y="289.2" width="13.018" height="13.018"/><rect x="144.602" y="289.2" width="13.018" height="13.018"/><rect x="249.455" y="289.2" width="13.018" height="13.018"/><rect x="272.971" y="289.2" width="13.019" height="13.018"/><path d="M299.384,86.002c-38.663,0-76.517,13.321-106.583,37.511c-29.616,23.826-50.631,57.223-59.172,94.037l11.689,2.712    c5.636-24.289,16.588-46.101,31.464-64.349c19.094,11.572,39.254,20.392,60.077,26.312c-5.572,16.738-9.683,35.373-11.236,55.797    l-25.712-53.026c-1.221-2.515-3.816-4.141-6.611-4.141h-20.772c-2.163,0-4.206,0.946-5.605,2.597    c-1.398,1.65-1.998,3.82-1.644,5.955v-0.001l13.036,78.607h-36.63c-0.295-3.949-0.454-7.923-0.454-11.868h-12    c0,3.945,0.153,7.917,0.428,11.868h-26.144l-25.258-43.071c-1.344-2.29-3.828-3.713-6.483-3.713H55.832    c-2.207,0-4.294,0.964-5.724,2.645c-1.432,1.681-2.05,3.895-1.696,6.074l6.17,38.064h-5.008c-2.002,0-3.943,0.831-5.326,2.279    c-1.373,1.438-2.108,3.398-2.016,5.384c0.376,8.03,3.461,15.892,8.985,23.029l-11.453,29.317    c-0.947,2.424-0.641,5.148,0.819,7.287c1.403,2.055,3.706,3.281,6.158,3.281h15.634c2.14,0,4.184-0.936,5.608-2.568l13.962-16.021    c6.529,2.234,13.133,3.402,19.402,3.402h41.844c3.611,8.412,7.931,16.558,12.875,24.305l-10.241,21.508    c-1.091,2.289-0.934,4.938,0.421,7.081c1.354,2.146,3.677,3.427,6.214,3.427h20.45c2.153,0,4.19-0.938,5.589-2.578l2.572-3.012    c11.885-7.115,34.66-19.188,62.803-26.498c12.782,29.961,29.503,52.457,41.241,66.016c-33.536-3.025-65.297-16.666-90.658-39.17    l-7.965,8.976c31.133,27.625,71.225,42.84,112.891,42.84c93.816,0,170.143-76.33,170.143-170.152    C469.525,162.328,393.2,86.002,299.384,86.002z M414.236,147.551c-18.04,10.633-37.104,18.688-56.822,23.984    c-12.854-32.928-30.917-57.568-44.415-72.94C352.733,102,388.318,120.154,414.236,147.551z M345.633,174.344    c-12.763,2.69-25.822,4.259-38.929,4.643c-18.209,0.533-36.354-1.198-54.03-5.128c13.732-34.509,33.409-59.258,46.219-72.945    C311.731,114.528,331.724,139.449,345.633,174.344z M184.861,146.753c25.802-27.048,60.962-44.554,99.897-48.084    c-13.396,15.377-31.134,39.777-43.81,72.242C221.545,165.473,202.731,157.369,184.861,146.753z M178.014,192.854h12.372    l36.443,75.158h-36.351L178.014,192.854z M69.205,233.229l20.398,34.785H66.738L61.1,233.229H69.205z M60.284,326.592h-7.077    l11.438-29.281h21.159L60.284,326.592z M90.623,310.047l10.374-11.902c2.004-2.301,2.476-5.596,1.202-8.395    c-1.246-2.738-3.856-4.439-6.812-4.439H61.539c-1.458,0-2.829,0.436-4.001,1.188c-1.074-1.987-1.986-4.151-2.581-6.485h7.967    H97.43h89.104h47.72h38.299c12.557,0,30.536,9.24,30.536,15.695c0,2.857-3.991,6.791-10.168,10.021    c-6.485,3.395-14.672,5.674-20.368,5.674h-37.926l4.445-5.205c1.854-2.174,2.279-5.254,1.083-7.85    c-1.197-2.595-3.816-4.271-6.673-4.271h-47.239c-2.818,0-5.422,1.644-6.635,4.188l-6.255,13.137h-72.005    C97.894,311.404,94.281,310.936,90.623,310.047z M156.352,323.404h11.288l-5.396,11.332    C160.127,331.036,158.158,327.255,156.352,323.404z M170.766,367.725h-10.938l29.352-61.645h34.216L170.766,367.725z     M201.784,349.874l22.598-26.47h48.171c7.577,0,17.756-2.764,25.932-7.04c10.708-5.601,16.604-12.938,16.604-20.655    c0-16.91-27.931-27.695-42.536-27.695h-32.387l-3.147-6.49c-0.052-1.905-0.078-3.728-0.078-5.522c0-2.208,0.032-4.453,0.095-6.669    c0.7-23.818,5.112-45.254,11.472-64.128c16.939,3.891,34.295,5.878,51.755,5.878c2.263,0,4.528-0.033,6.793-0.099    c14.407-0.422,28.768-2.186,42.769-5.248c6.373,18.895,10.794,40.353,11.496,64.203c0.001,0.021,0.001,0.042,0.001,0.064H247.48    v12h113.861c-0.677,26.953-6.243,50.99-13.988,71.71c-18.093-3.86-36.614-5.544-55.137-4.998    c-15.362,0.454-30.649,2.425-45.433,5.856C229.775,338.488,214.44,344.191,201.784,349.874z M255.771,344.911    c12.049-2.419,24.396-3.838,36.801-4.204c16.863-0.5,33.719,0.949,50.214,4.305c-13.942,32.039-32.414,54.867-43.333,66.646    C288.825,400.295,269.966,377.352,255.771,344.911z M313.758,413.637c11.823-13.764,28.256-36.146,40.883-65.871    c18.769,4.918,37.051,12.348,54.499,22.125C383.916,394.24,350.646,410.296,313.758,413.637z M417.708,360.945    c-18.715-10.785-38.391-18.971-58.623-24.407c7.935-21.603,13.591-46.585,14.258-74.538h45.38v-12h-45.4    c-0.004-0.14-0.005-0.277-0.009-0.417c-0.729-24.749-5.261-47.048-11.811-66.731c21.127-5.772,41.526-14.531,60.776-26.112    c20.821,25.693,33.762,58.016,35.114,93.261h-26.252v12h26.264C456.02,299.873,441.257,334.386,417.708,360.945z"/><rect x="116.026" y="230.223" width="46.896" height="12"/><rect x="18.052" y="367.725" width="15.964" height="12"/><rect x="47.07" y="367.725" width="73.034" height="12"/></g></g></svg>