<svg xmlns="http://www.w3.org/2000/svg" viewBox="0 0 64 80" x="0px" y="0px"><title>visitor</title><g><path d="M53,15a1,1,0,0,1,1-1h0a1,1,0,0,1,1,1h0a1,1,0,0,1-1,1h0A1,1,0,0,1,53,15Zm-4,0a1,1,0,0,1,1-1h0a1,1,0,0,1,1,1h0a1,1,0,0,1-1,1h0A1,1,0,0,1,49,15Zm-4,0a1,1,0,0,1,1-1h0a1,1,0,0,1,1,1h0a1,1,0,0,1-1,1h0A1,1,0,0,1,45,15Z"/></g><g><path d="M13.23,47.89a2.56,2.56,0,1,0-4.46,0,4.09,4.09,0,0,0-1.88,3.44,1,1,0,0,0,2,0,2.11,2.11,0,0,1,4.22,0,1,1,0,0,0,2,0A4.09,4.09,0,0,0,13.23,47.89ZM11,47.22a.56.56,0,1,1,.56-.55A.56.56,0,0,1,11,47.22Z"/><path d="M16.69,15.33a1,1,0,0,0,1-1,2.11,2.11,0,0,1,4.22,0,1,1,0,1,0,2,0A4.09,4.09,0,0,0,22,10.89a2.56,2.56,0,1,0-4.46,0,4.09,4.09,0,0,0-1.88,3.44A1,1,0,0,0,16.69,15.33ZM19.8,9.11a.56.56,0,1,1-.56.56A.56.56,0,0,1,19.8,9.11Z"/><path d="M46.23,50.89a2.56,2.56,0,1,0-4.46,0,4.09,4.09,0,0,0-1.88,3.44,1,1,0,0,0,2,0,2.11,2.11,0,0,1,4.22,0,1,1,0,0,0,2,0A4.09,4.09,0,0,0,46.23,50.89ZM44,50.22a.56.56,0,1,1,.56-.55A.56.56,0,0,1,44,50.22Z"/><path d="M59,20.73V14a3,3,0,0,0-3-3H27.73a8,8,0,0,0-15.86,0H10a3,3,0,0,0-3,3V42.08A8,8,0,1,0,19,49H36.59A7.9,7.9,0,0,0,36,52a8,8,0,0,0,16,0,7.9,7.9,0,0,0-.59-3H56a3,3,0,0,0,3-3V31.27a7.94,7.94,0,0,0,0-10.54ZM19.8,6a6,6,0,1,1-6,6A6,6,0,0,1,19.8,6ZM11,55a6,6,0,1,1,6-6A6,6,0,0,1,11,55Zm6-13H14.86a7.57,7.57,0,0,0-.86-.41V40h3Zm0-4H13a1,1,0,0,0-1,1v2.07A8.26,8.26,0,0,0,11,41a8.24,8.24,0,0,0-2,.26V14a1,1,0,0,1,1-1h1.87a8,8,0,0,0,15.86,0H56a1,1,0,0,1,1,1v5.08A8,8,0,0,0,46.76,21H44V17a1,1,0,0,0-1-1H38a1,1,0,0,0-1,1v5H33a1,1,0,0,0-1,1v4H28a1,1,0,0,0-1,1v5H24V31a1,1,0,0,0-1-1H18a1,1,0,0,0-1,1Zm30-6.73V42H44V23h1.59A7.94,7.94,0,0,0,47,31.27ZM42,18V42H39V18Zm-5,6V42H34V24Zm-5,5V42H29V29Zm-5,6v7H24V35Zm-5-3V42H19V32ZM44,58a6,6,0,1,1,6-6A6,6,0,0,1,44,58ZM57,46a1,1,0,0,1-1,1H50.24a8,8,0,0,0-12.48,0h-19a8.15,8.15,0,0,0-1.5-3H55a1,1,0,0,0,0-2H54V33.93a8.08,8.08,0,0,0,3-1Zm-8-4V32.92a8.08,8.08,0,0,0,3,1V42Zm8.29-11.82h0a6,6,0,0,1-8.58,0h0A5.94,5.94,0,0,1,47,26a6,6,0,0,1,10.29-4.18h0a6,6,0,0,1,0,8.36Z"/><path d="M55.23,24.89a2.56,2.56,0,1,0-4.46,0,4.09,4.09,0,0,0-1.88,3.44,1,1,0,0,0,2,0,2.11,2.11,0,0,1,4.22,0,1,1,0,0,0,2,0A4.09,4.09,0,0,0,55.23,24.89ZM53,24.22a.56.56,0,1,1,.56-.55A.56.56,0,0,1,53,24.22Z"/><path d="M12,22h6a1,1,0,0,0,0-2H12a1,1,0,0,0,0,2Z"/><path d="M12,25H24a1,1,0,0,0,0-2H12a1,1,0,0,0,0,2Z"/><path d="M20,27a1,1,0,0,0-1-1H12a1,1,0,0,0,0,2h7A1,1,0,0,0,20,27Z"/></g></svg>