<svg xmlns="http://www.w3.org/2000/svg" xmlns:xlink="http://www.w3.org/1999/xlink" version="1.1" x="0px" y="0px" viewBox="0 0 48 37.5" xml:space="preserve"><g transform="translate(-484 -1460)"><g xmlns="http://www.w3.org/2000/svg" xmlns:xlink="http://www.w3.org/1999/xlink"><rect x="492" y="1465" width="1" height="1"/><rect x="493" y="1466" width="1" height="1"/><rect x="497" y="1466" width="1" height="1"/><g><path d="M502,1463h-1l-2,1h-4l-1,1v1h1v1h1v-1h1l1-1h1l1,1v1l1,2h1v-2l2-1v-1L502,1463z M501,1466.382v-0.796l-0.979-0.979     l1.215-0.607h0.35l1.393,1.393L501,1466.382z"/></g><rect x="498" y="1467" width="1" height="1"/><rect x="503" y="1467" width="1" height="1"/><rect x="507" y="1463" width="2" height="1"/><rect x="505" y="1469" width="1" height="1"/><rect x="513" y="1465" width="1" height="1"/><rect x="514" y="1464" width="1" height="1"/><polygon points="523,1472 523,1473 525,1473 525,1470 524,1470 524,1472   "/><rect x="521" y="1475" width="1" height="2"/><rect x="520" y="1478" width="1" height="1"/><rect x="521" y="1479" width="1" height="1"/><rect x="522" y="1478" width="1" height="1"/><rect x="524" y="1478" width="3" height="1"/><g><path d="M526,1480h-2l-2,1l1,3l2-1l2,1l1-2L526,1480z M526.553,1482.658l-1.553-0.776l-1.416,0.708l-0.361-1.083l1.014-0.507     h1.35l1.197,1.197L526.553,1482.658z"/></g><rect x="529" y="1484" width="1" height="1"/><rect x="530" y="1483" width="1" height="1"/><rect x="512" y="1479" width="1" height="2"/><rect x="491" y="1466" width="1" height="1"/><path d="M498,1476v-1h-3v-1h2l2-2l1-1v-1l-2-1l-1,1h-1l-1-1l2-1l-2-1l-1,1l-3-1h-4l-1,1l1,2l1-1l2,1l1,1v2l2,2l2,1l2,1l-2,2l1,2    l1,1v3v2h1l2-4h1l1-3v-1l-6-3H498z M494,1473v1.382l-0.407-0.204l-1.593-1.592v-2l-1.408-1.408l-2.356-1.178h2.602l2.622,0.874    l2.126,2.126h1.828l0.783-0.783l0.781,0.391l-2.393,2.393H494z M501,1479.618v0.22l-0.721,2.162h-0.897l-1.382,2.764v-3.178    l-1.178-1.179l-0.605-1.21l1.314-1.313L501,1479.618z"/><g><path d="M523,1466l-2-1l-1-1l-8,3l-3-1l-2,2v1l-1,1v1h-1v2l-1,1v2l1,1h2v3l2,2h1l1-2v-2l2-2l1-1v-1h1l1,2h1v-1l1-1l1,2l1,1v-2     l2-1v-2h1l1-2v-1h2v1h1v-1l2-1v-2H523z M528,1467.382l-1.236,0.618H523v1.764l-0.618,1.236H521v2.382l-1.753,0.877l-0.973-1.947     l-2,2l-0.656-1.312H513v1.586l-3,3v2.178l-0.607,1.215l-1.393-1.393V1476h-2.586l-0.414-0.414v-1.172l1-1V1472h1v-1.586l1-1v-1     l1.271-1.27l2.749,0.916l7.729-2.898l0.659,0.66l2.356,1.178H528V1467.382z"/></g><rect x="527" y="1479" width="1" height="1"/><rect x="523" y="1474" width="1" height="1"/></g></g></svg>