<svg xmlns="http://www.w3.org/2000/svg" xmlns:xlink="http://www.w3.org/1999/xlink" version="1.1" x="0px" y="0px" viewBox="0 0 66 82.5" enable-background="new 0 0 66 66" xml:space="preserve"><g><path d="M27.7,51.5H22v-1.4c3.8-2.3,7.6-6.9,7.9-12.4c1.1-5,0.1-7.2,0.1-7.6c0,0,0-0.1,0.2-0.1   c0.3-0.1,0.5-0.4,0.6-0.7c0.1-0.3,0-0.6-0.2-0.9c-3.5-3.9-7-7.2-12.7-7c-3.1,0.1-6.1,1.3-9.1,3.5c-0.6,0.4-0.9,0.3-1.5-0.3   c-1.2-1.2-2.2-0.1-2,0.7C6,28,3.7,31.5,5.1,37.8c0.3,5.4,4.1,10,7.9,12.3v1.5H7.3c-3.5,0-6.3,2.8-6.3,6.3V64c0,0.5,0.4,1,1,1H33   c0.5,0,1-0.4,1-1v-6.2C34,54.5,31.3,51.5,27.7,51.5z M7.3,27.1c0.7,0.2,1.6,0.2,2.6-0.5c2.7-2,5.3-3,8-3.1   c4.3-0.2,7.6,2.2,10.4,5.4c0,0,0,0.1,0.1,0.1c-0.5,0.7-0.3,1.7-0.2,2.2c0.2,0.9,0.3,1.9,0.2,3c-0.4-0.8-0.8-1.7-1-2.3   c-0.2-0.5-0.7-0.7-1.2-0.5c-11.1,4.2-15.5-1.6-17.6-0.8c-0.7,0.3-0.9,1-1.2,1.6c-0.2,0.5-0.5,1.3-0.8,2C6.5,31.3,7.2,29.1,7.3,27.1   z M7.1,37.8c1.9-4,2.1-4.8,2.3-5.3c6.1,2.5,10.5,3.4,16.6,1c0.7,1.5,1.6,3.6,1.9,4.3c-0.4,6.7-7.1,11.8-10.4,11.8   C14.2,49.6,7.5,44.5,7.1,37.8z M17.5,51.5c0.8,0,1.6-0.2,2.5-0.5v1.6c0,1.4-1.1,2.5-2.5,2.5c-1.4,0-2.5-1.1-2.5-2.5V51   C15.9,51.3,16.7,51.5,17.5,51.5z M7.3,53.5h5.8c0.4,2,2.2,3.6,4.4,3.6s4-1.5,4.4-3.6h5.8c1.4,0,2.6,0.6,3.4,1.6h-0.9   c-2.4,0-4.3,1.9-4.3,4.3v3.6H9.2v-3.6c0-2.4-1.9-4.3-4.3-4.3H3.9C4.7,54.1,5.9,53.5,7.3,53.5z M3,57.1h1.8c1.3,0,2.4,1.1,2.4,2.4   v3.6H2.9C3,57.7,2.9,57.8,3,57.1z M32.1,63.1h-4.3v-3.6c0-1.3,1.1-2.4,2.4-2.4H32C32.1,57.8,32,57.7,32.1,63.1z"/><path d="M20.9,38.6h2.5c0.5,0,1-0.4,1-1s-0.4-1-1-1h-2.5c-0.5,0-1,0.4-1,1S20.3,38.6,20.9,38.6z"/><path d="M15.1,37.6c0-0.5-0.4-1-1-1h-2.5c-0.5,0-1,0.4-1,1s0.4,1,1,1h2.5C14.7,38.6,15.1,38.1,15.1,37.6z"/><path d="M21.1,44.3c-0.4-0.4-1-0.4-1.4,0c-1.2,1.2-3.2,1.2-4.4,0c-0.4-0.4-1-0.4-1.4,0c-0.4,0.4-0.4,1,0,1.4   c1,1,2.2,1.5,3.6,1.5c1.4,0,2.6-0.5,3.6-1.5C21.5,45.3,21.5,44.7,21.1,44.3z"/><path d="M47.3,1C47.3,1,47.3,1,47.3,1L47.3,1C47.3,1,47.3,1,47.3,1c-9.7,0-17.7,7.9-17.7,17.7   c0,9.7,7.9,17.7,17.7,17.7S65,28.4,65,18.7S57.1,1,47.3,1z M57.3,26.1c-0.3-0.9-0.9-1.6-1.6-2c0.2-1.4,0.3-2.9,0.4-4.4h7   c-0.1,2.3-0.8,4.5-1.8,6.4H57.3z M31.6,19.6h4.7c0.3,1.1,1.3,2,2.4,2.3c0.1,1.4,0.3,2.8,0.6,4.1h-5.9C32.4,24.1,31.8,22,31.6,19.6z    M53.7,23.7c-1.4,0.1-2.5,1.1-2.9,2.4h-2.5v-6.4h5.8C54.1,21,53.9,22.4,53.7,23.7z M48.3,17.7v-6.4h2.5c0.4,1.3,1.5,2.3,2.9,2.4   c0.2,1.3,0.3,2.6,0.4,4H48.3z M54,11.8c-0.8,0-1.5-0.7-1.5-1.5c0-0.8,0.7-1.5,1.5-1.5c0.8,0,1.5,0.7,1.5,1.5   C55.5,11.1,54.8,11.8,54,11.8z M50.8,9.3h-2.5V3.1c1.4,0.5,2.7,2.1,3.8,4.4C51.5,8,51,8.6,50.8,9.3z M46.4,3.1v6.2h-4.4   C43,6.1,44.6,3.8,46.4,3.1z M46.4,11.3v6.4h-3.6c-0.3-1-1.1-1.9-2.1-2.2c0.1-1.5,0.4-2.9,0.7-4.2H46.4z M39.6,20.1   c-0.8,0-1.5-0.7-1.5-1.5c0-0.8,0.7-1.5,1.5-1.5c0.8,0,1.5,0.7,1.5,1.5C41,19.5,40.4,20.1,39.6,20.1z M38.7,15.4   c-1.2,0.3-2.1,1.2-2.4,2.3h-4.7c0.1-2.3,0.8-4.5,1.8-6.4h5.9C39.1,12.6,38.9,13.9,38.7,15.4z M40.7,21.9c1-0.4,1.8-1.2,2.1-2.2h3.6   v6.4h-5C41.1,24.8,40.8,23.3,40.7,21.9z M46.4,28v6.2c-1.8-0.6-3.4-2.9-4.4-6.2H46.4z M48.3,34.2V28h2.5c0.2,0.7,0.7,1.3,1.2,1.8   C51,32.1,49.7,33.7,48.3,34.2z M54.1,28.5c-0.8,0-1.5-0.7-1.5-1.5c0-0.8,0.7-1.5,1.5-1.5c0.8,0,1.5,0.7,1.5,1.5   C55.5,27.8,54.9,28.5,54.1,28.5z M56,17.7c0-1.5-0.2-3-0.4-4.4c0.8-0.4,1.4-1.1,1.6-2h3.9c1,1.9,1.7,4.1,1.8,6.4H56z M60,9.3h-2.7   C56.9,8,55.6,6.9,54,6.9c0,0-0.1,0-0.1,0c-0.6-1.3-1.2-2.4-1.9-3.3C55.2,4.7,58,6.7,60,9.3z M42.7,3.6c-1.1,1.4-2.1,3.4-2.8,5.7   h-5.2C36.7,6.7,39.4,4.6,42.7,3.6z M34.7,28h5.2c0.7,2.3,1.7,4.3,2.8,5.7C39.4,32.7,36.7,30.7,34.7,28z M52,33.7   c0.7-0.9,1.4-2,1.9-3.3c0,0,0.1,0,0.1,0c1.5,0,2.8-1,3.2-2.4H60C58,30.7,55.2,32.7,52,33.7z"/></g></svg>