<svg xmlns="http://www.w3.org/2000/svg" xmlns:xlink="http://www.w3.org/1999/xlink" version="1.1" enable-background="new 0 0 66 66" xml:space="preserve" width="66" height="82.5" style=""><rect id="backgroundrect" width="100%" height="100%" x="0" y="0" fill="none" stroke="none"/><g class="currentLayer" style=""><title>Layer 1</title><g id="svg_1" class=""><path d="M52.840500274658204,12.628497817993164 H42.458500274658206 L41.849500274658205,10.455497817993164 c-0.12100000000000002,-0.43200000000000016 -0.515,-0.7300000000000003 -0.9630000000000003,-0.7300000000000003 H25.112500274658203 c-0.4480000000000002,0 -0.8420000000000003,0.29800000000000015 -0.9630000000000003,0.7300000000000003 l-0.6090000000000003,2.173 H13.159500274658203 c-2.104,0 -3.816,1.7120000000000002 -3.816,3.816 v52.514 c0,2.104 1.7120000000000002,3.816 3.816,3.816 h39.681 c2.104,0 3.816,-1.7120000000000002 3.816,-3.816 V16.445497817993164 C56.65650027465821,14.340497817993164 54.9445002746582,12.628497817993164 52.840500274658204,12.628497817993164 zM21.159500274658203,22.594497817993165 c0.18900000000000008,0.25 0.48400000000000015,0.3960000000000003 0.797,0.3960000000000003 h22.087 c0.31300000000000017,0 0.6080000000000003,-0.14600000000000007 0.797,-0.3960000000000003 c0.18900000000000008,-0.24900000000000008 0.25,-0.5730000000000003 0.1660000000000001,-0.8740000000000003 l-0.6720000000000006,-2.398 h5.628 v46.759 H16.036500274658202 V19.322497817993163 h5.628 l-0.6720000000000006,2.398 C20.908500274658202,22.021497817993165 20.970500274658203,22.345497817993163 21.159500274658203,22.594497817993165 zM25.871500274658203,11.725497817993164 h14.257 l2.596,9.265 H23.2745002746582 L25.871500274658203,11.725497817993164 zM54.65650027465821,68.95849781799316 c0,1.001 -0.8140000000000003,1.816 -1.816,1.816 H13.159500274658203 c-1.001,0 -1.816,-0.8150000000000003 -1.816,-1.816 V16.445497817993164 c0,-1.001 0.8150000000000003,-1.816 1.816,-1.816 h9.821 l-0.7550000000000003,2.694 h-7.189 c-0.552,0 -1,0.4480000000000002 -1,1 v48.759 c0,0.552 0.4480000000000002,1 1,1 h35.926 c0.552,0 1,-0.4480000000000002 1,-1 V18.322497817993163 c0,-0.552 -0.4480000000000002,-1 -1,-1 h-7.189 l-0.7550000000000003,-2.694 h9.822 c1.001,0 1.816,0.8150000000000003 1.816,1.816 V68.95849781799316 z" id="svg_2"/><path d="M45.1125002746582,44.210497817993165 H20.887500274658205 c-0.552,0 -1,0.4480000000000002 -1,1 s0.4480000000000002,1 1,1 h24.225 c0.552,0 1,-0.4480000000000002 1,-1 S45.6645002746582,44.210497817993165 45.1125002746582,44.210497817993165 z" id="svg_3"/><path d="M19.887500274658205,29.210497817993165 c0,0.552 0.4480000000000002,1 1,1 h24.225 c0.552,0 1,-0.4480000000000002 1,-1 s-0.4480000000000002,-1 -1,-1 H20.887500274658205 C20.3355002746582,28.210497817993165 19.887500274658205,28.658497817993165 19.887500274658205,29.210497817993165 z" id="svg_4"/><path d="M45.1125002746582,52.210497817993165 H32.504500274658206 c-0.552,0 -1,0.4480000000000002 -1,1 s0.4480000000000002,1 1,1 h12.608 c0.552,0 1,-0.4480000000000002 1,-1 S45.6645002746582,52.210497817993165 45.1125002746582,52.210497817993165 z" id="svg_5"/><path d="M45.1125002746582,36.210497817993165 H32.504500274658206 c-0.552,0 -1,0.4480000000000002 -1,1 s0.4480000000000002,1 1,1 h12.608 c0.552,0 1,-0.4480000000000002 1,-1 S45.6645002746582,36.210497817993165 45.1125002746582,36.210497817993165 z" id="svg_6"/><path d="M45.1125002746582,60.210497817993165 H20.887500274658205 c-0.552,0 -1,0.4480000000000002 -1,1 s0.4480000000000002,1 1,1 h24.225 c0.552,0 1,-0.4480000000000002 1,-1 S45.6645002746582,60.210497817993165 45.1125002746582,60.210497817993165 z" id="svg_7"/><path d="M22.6145002746582,40.50149781799316 c0.1950000000000001,0.1950000000000001 0.451,0.29300000000000015 0.7070000000000003,0.29300000000000015 s0.512,-0.09800000000000009 0.7070000000000003,-0.29300000000000015 l5.1690000000000005,-5.1690000000000005 c0.3910000000000002,-0.3910000000000002 0.3910000000000002,-1.023 0,-1.4140000000000001 s-1.023,-0.3910000000000002 -1.4140000000000001,0 l-4.462,4.462 l-1.727,-1.727 c-0.3910000000000002,-0.3910000000000002 -1.023,-0.3910000000000002 -1.4140000000000001,0 s-0.3910000000000002,1.023 0,1.4140000000000001 L22.6145002746582,40.50149781799316 z" id="svg_8"/><path d="M22.6145002746582,56.50149781799316 c0.1950000000000001,0.1950000000000001 0.451,0.29300000000000015 0.7070000000000003,0.29300000000000015 s0.512,-0.09800000000000009 0.7070000000000003,-0.29300000000000015 l5.1690000000000005,-5.1690000000000005 c0.3910000000000002,-0.3910000000000002 0.3910000000000002,-1.023 0,-1.4140000000000001 s-1.023,-0.3910000000000002 -1.4140000000000001,0 l-4.462,4.462 l-1.727,-1.727 c-0.3910000000000002,-0.3910000000000002 -1.023,-0.3910000000000002 -1.4140000000000001,0 s-0.3910000000000002,1.023 0,1.4140000000000001 L22.6145002746582,56.50149781799316 z" id="svg_9"/></g></g></svg>