<svg xmlns="http://www.w3.org/2000/svg" xmlns:xlink="http://www.w3.org/1999/xlink" version="1.1" style="" xml:space="preserve" width="64" height="80"><rect id="backgroundrect" width="100%" height="100%" x="0" y="0" fill="none" stroke="none"/><g class="currentLayer" style=""><title>Layer 1</title><path d="M53.50000008940697,25.4 L53.50000008940697,25.4 c0.9,-1.8 0.6000000000000003,-4.2 -1,-5.7 c-1.5,-1.5 -3.8,-1.8 -5.7,-1 C42.50000008940697,15.6 37.400000089406966,14 32.00000008940697,14 C17.700000089406966,14 6.000000089406967,25.7 6.000000089406967,40 c0,4.5 1.1,8.6 3.1,12.3 c-2.3,4.5 -2.7,7.3 -1.2,8.6 c0.4,0.4 1,0.6000000000000003 1.7000000000000002,0.6000000000000003 c1.3,0 3,-0.7000000000000003 5.1,-2.1 C19.300000089406968,63.5 25.300000089406968,66 32.00000008940697,66 c14.3,0 26,-11.7 26,-26 C58.00000008940697,34.8 56.50000008940697,29.7 53.50000008940697,25.4 zM51.20000008940697,21.1 c1.2,1.2 1.2,3.1 0,4.2 l-3.5,3.5 c-0.30000000000000016,0.30000000000000016 -0.4,0.7000000000000003 -0.2,1.1 l4.7,11.5 l-3,3.9 l-5.6,-10.6 c-0.1,-0.30000000000000016 -0.4,-0.5 -0.7000000000000003,-0.5 c-0.30000000000000016,0 -0.6000000000000003,0.1 -0.9,0.30000000000000016 L37.00000008940697,39.5 c-0.2,0.2 -0.30000000000000016,0.5 -0.30000000000000016,0.8 l0.6000000000000003,4.3 l-2.1,1.2 l-3,-5.5 c-0.1,-0.2 -0.2,-0.30000000000000016 -0.4,-0.4 l-5.5,-3 l1.2,-2.1 l4.3,0.6000000000000003 c0.30000000000000016,0 0.6000000000000003,-0.1 0.8,-0.30000000000000016 l4.9,-5 c0.2,-0.2 0.30000000000000016,-0.5 0.30000000000000016,-0.9 c0,-0.30000000000000016 -0.2,-0.6000000000000003 -0.5,-0.7000000000000003 l-10.6,-5.6 l3.9,-3 l11.5,4.7 c0.4,0.2 0.8,0.1 1.1,-0.2 l3.5,-3.5 C48.10000008940697,20 50.00000008940697,20 51.20000008940697,21.1 zM9.200000089406966,59.4 c-0.2,-0.2 -0.5,-1.6 1.2,-5 c0.8,1.3 1.8,2.5 2.9,3.6 C10.600000089406967,59.6 9.400000089406968,59.5 9.200000089406966,59.4 zM30.10000008940697,63.9 l1.6,-2.2 l4.2,-2.5 l3.6,3.6 C37.10000008940697,63.6 34.60000008940697,64 32.00000008940697,64 C31.300000089406968,64 30.700000089406966,64 30.10000008940697,63.9 zM41.50000008940697,62.1 l-4.8,-4.8 c-0.30000000000000016,-0.30000000000000016 -0.8,-0.4 -1.2,-0.2 l-5,3 c-0.1,0.1 -0.2,0.2 -0.30000000000000016,0.30000000000000016 l-2.4,3.2 c-4.3,-0.8 -8.3,-2.7 -11.4,-5.5 c3.6,-2.7 7.8,-6.8 11.8,-11.5 l-1.5,-1.3 c-3.9,4.6 -8,8.6 -11.6,11.2 c-0.1,0.1 -0.2,0.1 -0.30000000000000016,0.2 c-2.9,-3 -5.1,-6.7 -6.1,-10.9 l4.2,-0.8 l2.7,0.9 c0.1,0 0.2,0.1 0.30000000000000016,0.1 c0.2,0 0.30000000000000016,0 0.4,-0.1 l6,-3 c0.5,-0.2 0.7000000000000003,-0.8 0.5,-1.2 l-2.8,-7.5 l3.6,-4.6 c0.2,-0.30000000000000016 0.30000000000000016,-0.7000000000000003 0.1,-1.1 l-3,-6 l-1.8,0.9 l2.7,5.4 l-3.6,4.5 c-0.2,0.30000000000000016 -0.30000000000000016,0.6000000000000003 -0.2,1 l2.7,7.2 l-4.8,2.4 l-2.6,-0.9 C13.200000089406966,43 13.000000089406967,43 12.800000089406968,43 l-4.5,0.9 C8.100000089406967,42.6 8.000000089406967,41.3 8.000000089406967,40 C8.000000089406967,26.8 18.800000089406968,16 32.00000008940697,16 c4.8,0 9.3,1.4 13.2,4 l-2.8,2.8 L31.000000089406967,18.1 c-0.30000000000000016,-0.1 -0.7000000000000003,-0.1 -1,0.1 l-5.7,4.2 C24.10000008940697,22.6 24.000000089406967,23 24.000000089406967,23.3 s0.2,0.6000000000000003 0.5,0.8 l10.8,5.7 l-3.6,3.6 l-4.5,-0.6000000000000003 c-0.4,-0.1 -0.8,0.1 -1,0.5 l-2.1,3.5 C24.000000089406967,37.1 24.000000089406967,37.4 24.000000089406967,37.6 c0.1,0.30000000000000016 0.2,0.5 0.5,0.6000000000000003 l6.1,3.4 l3.4,6.1 c0.1,0.2 0.4,0.4 0.6000000000000003,0.5 c0.30000000000000016,0.1 0.5,0 0.8,-0.1 l3.5,-2.1 c0.30000000000000016,-0.2 0.5,-0.6000000000000003 0.5,-1 l-0.6000000000000003,-4.5 l3.6,-3.6 l5.7,10.8 c0.2,0.30000000000000016 0.5,0.5 0.8,0.5 c0,0 0.1,0 0.1,0 c0.30000000000000016,0 0.6000000000000003,-0.1 0.8,-0.4 l4.2,-5.7 c0.2,-0.30000000000000016 0.30000000000000016,-0.7000000000000003 0.1,-1 l-4.7,-11.4 l2.7,-2.7 C54.70000008940697,31 56.00000008940697,35.4 56.00000008940697,40 C56.00000008940697,49.9 50.00000008940697,58.4 41.50000008940697,62.1 z" id="svg_1" class=""/></g></svg>